<?xml version="1.0" encoding="utf-8"?>
<!-- Generator: Adobe Illustrator 16.0.0, SVG Export Plug-In . SVG Version: 6.00 Build 0)  -->
<!DOCTYPE svg PUBLIC "-//W3C//DTD SVG 1.1//EN" "http://www.w3.org/Graphics/SVG/1.1/DTD/svg11.dtd">
<svg version="1.1" id="Layer_1" xmlns="http://www.w3.org/2000/svg" xmlns:xlink="http://www.w3.org/1999/xlink" x="0px" y="0px"
	 width="640px" height="400px" viewBox="0 0 640 400" enable-background="new 0 0 640 400" xml:space="preserve">
<path d="M293.168,320.838c-0.473,0-0.865,0.392-0.865,0.864v16.428c0,0.473,0.392,0.864,0.865,0.864h16.427
	c0.473,0,0.865-0.392,0.865-0.864v-16.428c0-0.473-0.392-0.864-0.865-0.864H293.168z M293.168,321.702h16.427v16.428h-16.427
	V321.702z M298.325,325.161l-2.13,9.511h1.037l0.617-2.781h2.075l0.602,2.781h1.051l-2.075-9.511H298.325z M298.886,326.215h0.042
	c0.11,0.692,0.235,1.467,0.374,2.131l0.491,2.436l-1.77-0.001l0.476-2.42C298.637,327.723,298.775,326.922,298.886,326.215z
	 M304.635,327.755c-0.582,0-1.066,0.211-1.409,0.521c-0.344,0.311-0.554,0.701-0.691,1.073c-0.273,0.741-0.268,1.451-0.268,1.456
	c-0.008,0.064-0.1,0.914,0.16,1.837c0.136,0.48,0.371,0.984,0.793,1.379c0.422,0.394,1.033,0.651,1.801,0.651
	c0.914,0,1.737-0.418,1.737-0.418l-0.378-0.778c0,0-0.725,0.331-1.359,0.331c-0.587,0-0.945-0.17-1.212-0.419
	c-0.268-0.249-0.443-0.603-0.549-0.98c-0.13-0.461-0.146-0.865-0.143-1.165h3.885v-0.433c0,0,0.006-0.718-0.268-1.461
	c-0.138-0.372-0.348-0.763-0.691-1.073C305.7,327.966,305.216,327.755,304.635,327.755z M304.635,328.619
	c0.386,0,0.627,0.116,0.829,0.298c0.201,0.183,0.354,0.447,0.458,0.731c0.132,0.355,0.116,0.505,0.135,0.729h-2.846
	c0.02-0.225,0.003-0.374,0.135-0.729c0.105-0.284,0.257-0.549,0.458-0.731C304.006,328.735,304.248,328.619,304.635,328.619z"/>
<path d="M499.593,270.756c-2.979,0.024-4.922,1.386-5.049,1.477c-0.136,0.099-0.232,0.243-0.271,0.406l-2.259,9.607
	c-0.055,0.236,0.017,0.484,0.188,0.655c0.174,0.171,0.424,0.239,0.658,0.183c2.378-0.752,5.984-0.857,9.688,1.212
	c0.104,0.059,0.221,0.089,0.339,0.089c0.094,0,0.188-0.019,0.275-0.056c0.198-0.086,0.347-0.261,0.4-0.47l2.648-10.382
	c0.074-0.291-0.046-0.599-0.3-0.76C503.543,271.207,501.381,270.741,499.593,270.756z M508.042,274.352
	c-0.108-0.012-0.219,0.003-0.322,0.044c-0.21,0.082-0.367,0.259-0.423,0.478l-2.632,10.318c-0.071,0.277,0.035,0.571,0.268,0.738
	c2.394,1.72,4.812,2.232,6.856,2.232c1.981,0,3.611-0.481,4.522-0.829c0.217-0.082,0.377-0.267,0.431-0.492l2.605-11.075
	c0.065-0.281-0.051-0.575-0.291-0.737c-0.24-0.161-0.559-0.157-0.795,0.012c-0.176,0.125-4.318,3.114-9.908-0.58
	C508.258,274.398,508.151,274.362,508.042,274.352z M496.071,283.995c-1.923,0.049-3.494,0.57-4.365,0.903
	c-0.217,0.082-0.377,0.267-0.431,0.491l-2.582,10.983c-0.013,0.053-0.018,0.138-0.018,0.191c0,0.261,0.146,0.498,0.378,0.618
	c0.229,0.118,0.726-0.052,0.726-0.052s4.096-3.04,9.405,0.286c0.108,0.063,0.23,0.097,0.354,0.097c0.091,0,0.183-0.017,0.27-0.054
	c0.202-0.084,0.354-0.258,0.408-0.471l2.628-10.305c0.074-0.293-0.046-0.598-0.299-0.761
	C500.271,284.369,497.994,283.946,496.071,283.995z M504.671,287.523c-0.108-0.009-0.218,0.008-0.32,0.049
	c-0.206,0.084-0.36,0.26-0.414,0.475l-2.631,10.312c-0.073,0.281,0.038,0.576,0.276,0.744c2.577,1.801,4.94,2.312,6.783,2.312
	c0.602,0,1.148-0.059,1.628-0.14c2.134-0.359,3.45-1.3,3.505-1.34c0.147-0.106,0.246-0.298,0.277-0.486l2.227-9.464
	c0.056-0.236-0.016-0.484-0.188-0.655c-0.174-0.171-0.424-0.24-0.657-0.183c-3.562,0.883-7.101,0.376-10.179-1.521
	C504.883,287.567,504.778,287.533,504.671,287.523z"/>
<path d="M253.304,178.223c-1.245,0-2.278,1.033-2.278,2.278v43.289c0,1.244,1.033,2.278,2.278,2.278h43.288
	c1.245,0,2.278-1.034,2.278-2.278V180.5c0-1.245-1.034-2.278-2.278-2.278H253.304z M253.304,180.5h43.288v43.289h-43.288V180.5z
	 M269.169,189.614l-5.613,25.062h2.732l1.624-7.329h5.469l1.584,7.329h2.77l-5.466-25.062H269.169z M283.758,189.614
	c-0.939,0-1.691,0.713-1.691,1.78s0.714,1.78,1.653,1.78h0.038c1.051,0,1.727-0.712,1.727-1.78S284.81,189.614,283.758,189.614z
	 M270.649,192.393h0.109c0.292,1.823,0.621,3.864,0.985,5.613l1.293,6.418l-4.664-0.002l1.255-6.379
	C269.993,196.366,270.356,194.252,270.649,192.393z M282.352,195.31v19.366h2.848V195.31H282.352z"/>
<path d="M553.279,193.493c-1.246,0-2.279,1.033-2.279,2.277v43.289c0,1.244,1.033,2.278,2.279,2.278h43.288
	c1.244,0,2.277-1.034,2.277-2.278v-43.289c0-1.244-1.033-2.277-2.277-2.277H553.279z M553.279,195.771h43.288v43.289h-43.288
	V195.771z M565.809,204.884l0.041,25.062h2.807v-25.062H565.809z M582.327,204.884v8.963v0.009c-0.691-1.493-1.91-2.136-3.186-2.136
	c-2.734,0-5.358,2.701-5.358,8.971c0,5.834,2.115,9.611,5.104,9.611c1.857,0,2.893-0.968,3.439-2.207v1.852h2.848
	c-0.037-1.021,0-2.643,0-3.845v-21.218H582.327z M579.759,214.124c1.35,0,2.406,1.611,2.553,3.434c0.037,0.399,0,0.847,0,1.21v5.198
	c0,0-0.033,0.668-0.143,0.996c-0.619,2.551-1.75,3.006-2.625,3.006c-2.041,0-2.955-3.56-2.955-7.277
	C576.589,217.155,577.427,214.124,579.759,214.124z"/>
<path d="M196.672,44.119c-1.245,0-2.278,1.033-2.278,2.278v43.288c0,1.245,1.033,2.278,2.278,2.278h43.288
	c1.245,0,2.278-1.033,2.278-2.278V46.397c0-1.245-1.033-2.278-2.278-2.278H196.672z M196.672,46.397h43.288v43.288h-43.288V46.397z
	 M211.009,55.51c-1.64,0-2.953,0.182-4.083,0.474l-0.002,24.587h2.808V70.125c0.401,0.036,0.766,0.036,1.239,0.036
	c2.188,0,4.484-0.91,5.796-2.732c0.949-1.239,1.493-2.771,1.493-5.03c0-2.149-0.619-3.938-1.784-5.104
	C215.2,56.055,213.268,55.51,211.009,55.51z M211.454,57.379c3.134,0,4.154,2.257,4.154,4.772c0,3.463-1.859,5.287-4.592,5.287
	c-0.474,0-0.802-0.036-1.13-0.071v-9.805C210.25,57.451,210.798,57.379,211.454,57.379z M225.967,62.345
	c-2.838,0-5.03,2.015-5.03,4.906c0,2.013,1.283,3.55,3.666,5.05c1.853,1.171,2.343,2.124,2.343,3.478
	c0,1.573-1.057,2.561-2.683,2.561c-1.174,0-2.308-0.512-2.95-0.915l-0.719,2.121c0.794,0.622,2.27,1.025,3.593,1.025
	c3.026,0,5.521-1.72,5.521-5.271c0-2.452-1.663-4.1-3.778-5.418c-1.815-1.17-2.27-1.866-2.27-3.037c0-1.17,0.793-2.267,2.343-2.267
	c0.984,0,1.741,0.33,2.459,0.806l0.757-2.125C228.461,62.784,227.405,62.345,225.967,62.345z"/>
<path d="M230.873,281.41c-0.698,0-1.278,0.579-1.278,1.277v24.271c0,0.698,0.58,1.278,1.278,1.278h24.271
	c0.698,0,1.277-0.58,1.277-1.278v-24.271c0-0.698-0.58-1.277-1.277-1.277H230.873z M230.873,282.688h24.271v24.271h-24.271V282.688z
	 M239.55,287.797c-0.92,0-1.657,0.103-2.291,0.267v13.785h1.574v-5.856c0.225,0.021,0.429,0.021,0.695,0.021
	c1.226,0,2.514-0.512,3.25-1.532c0.532-0.695,0.837-1.554,0.837-2.821c0-1.204-0.347-2.207-1-2.861
	C241.899,288.103,240.817,287.797,239.55,287.797z M239.8,288.845c1.757,0,2.329,1.266,2.329,2.676c0,1.942-1.043,2.965-2.575,2.965
	c-0.266,0-0.45-0.021-0.634-0.04v-5.498C239.125,288.886,239.432,288.845,239.8,288.845z M249.069,291.47
	c-0.918,0-1.507,0.417-1.833,1.357l-0.08,0.239v-1.437h-1.593v10.219h1.593l0.019-5.907c0-0.348,0.021-0.635,0.062-0.9
	c0.163-1.145,0.834-2.074,1.833-2.074c0.124,0,0.224-0.001,0.327,0.021v-1.497C249.293,291.47,249.191,291.47,249.069,291.47z"/>
<path d="M504.383,162.119l2.34-3.475c0.335-0.495,0.225-1.182-0.271-1.516c-0.5-0.335-1.19-0.186-1.526,0.31l-2.575,3.799
	c-1.79-0.653-3.729-1.016-5.765-1.016s-3.976,0.365-5.765,1.018l-2.577-3.797c-0.249-0.373-0.703-0.522-1.118-0.441
	c-0.14,0.025-0.284,0.051-0.407,0.136c-0.496,0.334-0.606,1.03-0.271,1.525l2.34,3.457c-3.614,1.915-6.311,4.881-7.188,8.881h29.974
	C510.694,167,507.998,164.034,504.383,162.119z M490.617,168.903c-0.903,0-1.628-0.725-1.628-1.628c0-0.898,0.725-1.627,1.628-1.627
	c0.898,0,1.628,0.729,1.628,1.627C492.245,168.178,491.516,168.903,490.617,168.903z M502.552,168.903
	c-0.898,0-1.626-0.725-1.626-1.628c0-0.898,0.728-1.627,1.626-1.627c0.903,0,1.628,0.729,1.628,1.627
	C504.18,168.178,503.455,168.903,502.552,168.903z"/>
<path d="M560.309,357.453c-0.403,0.891-0.594,1.29-1.113,2.076c-0.719,1.1-1.738,2.472-2.999,2.479
	c-1.12,0.011-1.409-0.73-2.93-0.717c-1.521,0.006-1.839,0.73-2.962,0.72c-1.258-0.011-2.223-1.248-2.944-2.344
	c-2.021-3.077-2.233-6.685-0.984-8.602c0.881-1.36,2.28-2.16,3.594-2.16c1.334,0,2.175,0.733,3.281,0.733
	c1.071,0,1.724-0.735,3.271-0.735c1.166,0,2.403,0.635,3.285,1.736C556.918,352.223,557.389,356.351,560.309,357.453z
	 M555.348,347.674c0.562-0.719,0.987-1.738,0.835-2.776c-0.919,0.063-1.992,0.649-2.619,1.405c-0.568,0.69-1.038,1.718-0.854,2.711
	C553.711,349.046,554.745,348.45,555.348,347.674z"/>
<path d="M42.602,17.918c-14.457,0-26.2,11.744-26.2,26.2s11.744,26.2,26.2,26.2s26.201-11.744,26.201-26.2
	S57.058,17.918,42.602,17.918z M42.602,20.197c9.1,0,17.003,5.063,21.048,12.53H42.602c-0.043,0-0.086,0.002-0.129,0.007
	c-5.864,0.066-10.68,4.59-11.209,10.335L23.276,30.05C27.624,24.085,34.645,20.197,42.602,20.197z M21.896,32.16l10.996,17.917
	c0.038,0.064,0.082,0.125,0.131,0.181c0.001,0.001,0.001,0.003,0.002,0.004c2.029,3.15,5.56,5.249,9.576,5.249
	c1.61,0,3.14-0.34,4.53-0.945L39.549,67.84C27.77,66.343,18.68,56.309,18.68,44.119C18.68,39.755,19.861,35.679,21.896,32.16z
	 M42.602,35.005c5.047,0,9.113,4.066,9.113,9.113c0,1.618-0.421,3.135-1.157,4.45c-0.001,0.001-0.001,0.001-0.002,0.002
	c-0.014,0.021-0.028,0.044-0.04,0.066c-1.567,2.746-4.515,4.595-7.914,4.595c-5.046,0-9.113-4.066-9.113-9.113
	S37.555,35.005,42.602,35.005z M49.405,35.005h15.321c1.156,2.809,1.798,5.885,1.798,9.113c0,13.226-10.697,23.922-23.922,23.922
	c-0.18,0-0.357-0.009-0.536-0.013l10.428-18.26c0.025-0.044,0.048-0.088,0.067-0.134c0.91-1.636,1.433-3.516,1.433-5.516
	C53.993,40.392,52.183,37.085,49.405,35.005z"/>
<path d="M415.207,109.572l-16.045-16.044c-0.68-0.684-1.576-1.025-2.472-1.025c-0.896,0-1.793,0.342-2.473,1.025l-3.173,3.173
	l3.926,3.927c1.305-0.767,3.004-0.601,4.122,0.517c1.118,1.119,1.281,2.818,0.515,4.119l3.86,3.86
	c1.304-0.766,3.004-0.6,4.122,0.518c1.327,1.328,1.327,3.479,0,4.806c-1.328,1.328-3.479,1.328-4.806,0
	c-1.119-1.118-1.285-2.818-0.518-4.122l-3.861-3.86c-0.275,0.163-0.563,0.282-0.865,0.358v10.438
	c1.464,0.378,2.549,1.696,2.549,3.279c0,1.878-1.521,3.398-3.398,3.398c-1.879,0-3.398-1.52-3.398-3.398
	c0-1.583,1.085-2.901,2.548-3.279v-10.438c-0.567-0.146-1.108-0.428-1.553-0.874c-1.118-1.118-1.281-2.817-0.515-4.118l-3.93-3.93
	l-11.67,11.669c-1.367,1.364-1.367,3.581,0,4.945l16.045,16.044c0.68,0.683,1.576,1.025,2.473,1.025
	c0.896,0,1.792-0.342,2.472-1.025l16.045-16.044C416.574,113.153,416.574,110.936,415.207,109.572z"/>
<path d="M295.771,103.285c-0.075,0.011-0.15,0.034-0.223,0.067c-0.611,0.304-1.308,1.205-1.441,1.383
	c-0.008,0.011-0.017,0.022-0.022,0.034c-0.687,1.03-1.055,2.234-1.068,3.489c-0.009,0.94,0.175,1.873,0.547,2.771
	c0.869,2.084,2.672,3.809,4.816,4.616c0.072,0.025,0.143,0.05,0.268,0.094c0.012,0.006,0.117,0.039,0.134,0.042l0.078,0.027
	c0.111,0.037,0.226,0.073,0.337,0.095c0.564,0.114,1.115,0.178,1.633,0.194c0.09,0,0.178,0.003,0.268,0.003
	c3.903,0,5.417-2.754,5.921-3.673c0.05-0.089,0.086-0.161,0.12-0.206c0-0.003,0-0.003,0.002-0.005
	c0.22-0.325,0.136-0.768-0.189-0.99c-0.322-0.22-0.766-0.137-0.987,0.189h-0.003c-1.04,1.533-2.821,1.998-5.289,1.386
	c-0.184-0.044-0.385-0.114-0.562-0.181c-0.233-0.083-0.467-0.181-0.684-0.286c-0.433-0.214-0.838-0.47-1.205-0.754
	c-2.172-1.683-3.02-5.187-1.751-7.209c0.169-0.27,0.14-0.621-0.075-0.857C296.232,103.335,295.999,103.255,295.771,103.285z
	 M289.459,104.705c-0.161-0.003-0.326,0.05-0.458,0.161c-1.077,0.876-2.179,2.312-2.227,2.371c-0.005,0.011-0.011,0.02-0.02,0.031
	c-1.947,2.835-2.095,6.87-0.373,10.278c0.27,0.54,0.576,1.055,0.901,1.528l0.098,0.139c0.275,0.403,0.584,0.86,0.979,1.215
	c0.137,0.156,0.284,0.307,0.429,0.451l0.069,0.072l0.059,0.059c0.147,0.142,0.297,0.286,0.454,0.426h0.002
	c0.011,0.017,0.028,0.028,0.042,0.042c0.176,0.156,0.354,0.303,0.59,0.49l0.064,0.047c0.184,0.148,0.37,0.287,0.562,0.423
	c0.02,0.014,0.039,0.028,0.058,0.042c0.067,0.044,0.134,0.086,0.2,0.134l0.067,0.044l0.077,0.05
	c0.143,0.096,0.282,0.181,0.479,0.296c0.128,0.078,0.264,0.155,0.354,0.2c0.039,0.022,0.081,0.044,0.178,0.097l0.217,0.114
	c0.011,0.005,0.061,0.028,0.072,0.033c0.142,0.073,0.289,0.143,0.437,0.209l0.226,0.1c0.147,0.064,0.297,0.126,0.481,0.195
	l0.084,0.031c0.006,0.005,0.074,0.03,0.08,0.033c0.134,0.048,0.27,0.095,0.406,0.139l0.312,0.103
	c0.155,0.053,0.336,0.115,0.533,0.147c0.972,0.161,1.914,0.245,2.809,0.245c0.105,0,0.211-0.003,0.314-0.003
	c7.863-0.172,9.907-6.853,9.927-6.92c0.098-0.336-0.061-0.695-0.379-0.846c-0.316-0.15-0.694-0.044-0.893,0.245
	c-1.992,2.91-5.76,4.14-9.597,3.127c-0.178-0.045-0.35-0.095-0.564-0.165c-0.036-0.011-0.066-0.022-0.125-0.044
	c-0.125-0.039-0.248-0.081-0.387-0.134l-0.197-0.075c-0.115-0.044-0.229-0.089-0.368-0.15l-0.092-0.042
	c-0.169-0.073-0.334-0.153-0.481-0.226l-0.406-0.211c-0.092-0.044-0.172-0.094-0.297-0.17l-0.07-0.039l-0.069-0.042
	c-0.103-0.061-0.206-0.125-0.301-0.192l-0.066-0.042c-0.005-0.003-0.062-0.042-0.067-0.047c-0.083-0.053-0.164-0.106-0.242-0.156
	c-0.172-0.123-0.342-0.251-0.539-0.406l-0.078-0.064c-1.836-1.466-3.194-3.425-3.832-5.526c-0.593-1.928-0.153-4.452,1.177-6.75
	c0.173-0.297,0.109-0.676-0.156-0.899C289.782,104.763,289.621,104.705,289.459,104.705z M281.621,106.841
	c-0.17,0-0.342,0.062-0.478,0.184c-1.361,1.221-2.379,2.805-2.491,2.985c-2.91,4.238-2.348,10.824-0.351,14.851
	c0.04,0.083,0.081,0.164,0.123,0.244l0.027,0.044c0.037,0.082,0.078,0.165,0.092,0.182c0.022,0.052,0.056,0.111,0.069,0.127
	c0.033,0.07,0.067,0.131,0.128,0.236l0.229,0.393c0.033,0.053,0.066,0.108,0.078,0.128c0.044,0.072,0.091,0.147,0.139,0.223
	l0.111,0.178c0.033,0.053,0.067,0.1,0.089,0.128c0.112,0.172,0.223,0.345,0.345,0.509c0.006,0.008,0.012,0.014,0.017,0.02
	l0.045,0.061c0.1,0.145,0.203,0.284,0.295,0.398l0.406,0.514c0.006,0.006,0.05,0.059,0.053,0.065l0.058,0.066
	c0.123,0.15,0.253,0.3,0.384,0.445c0.02,0.022,0.039,0.042,0.059,0.063c0.125,0.137,0.252,0.273,0.386,0.415l0.128,0.122
	c0.105,0.111,0.211,0.22,0.322,0.323c0,0.003,0.053,0.054,0.053,0.054l0.111,0.103c0.134,0.128,0.273,0.256,0.378,0.345
	c0.005,0.008,0.106,0.095,0.114,0.101c0.131,0.116,0.261,0.228,0.395,0.336l0.682,0.54c0.114,0.084,0.231,0.167,0.364,0.265
	c0.045,0.034,0.092,0.066,0.14,0.097c0.02,0.017,0.042,0.034,0.056,0.042l0.512,0.342c0.187,0.123,0.373,0.236,0.601,0.373
	l0.123,0.07c0.142,0.083,0.286,0.167,0.423,0.239c0.081,0.044,0.161,0.083,0.231,0.12c0.097,0.053,0.203,0.111,0.365,0.189
	c0.014,0.009,0.127,0.063,0.142,0.07c0.161,0.081,0.325,0.155,0.531,0.247c0,0.003,0.067,0.034,0.067,0.034
	c0.189,0.081,0.373,0.159,0.615,0.256c0.039,0.017,0.078,0.03,0.086,0.034c0.173,0.066,0.354,0.133,0.501,0.186
	c0.014,0.005,0.089,0.036,0.103,0.042c0.197,0.066,0.392,0.131,0.643,0.208c0.042,0.014,0.086,0.027,0.092,0.027l0.142,0.045
	c0.172,0.052,0.345,0.108,0.532,0.144c1.324,0.242,2.618,0.368,3.842,0.368h0.004c10.202,0,13.452-8.211,13.486-8.295
	c0.125-0.331-0.012-0.704-0.323-0.875c-0.306-0.17-0.695-0.089-0.912,0.191c-2.619,3.448-7.558,4.728-13.211,3.428
	c-0.137-0.033-0.275-0.072-0.412-0.115l-0.267-0.081c-0.181-0.055-0.361-0.117-0.537-0.178c-0.003,0-0.083-0.03-0.083-0.03
	c-0.156-0.053-0.312-0.114-0.448-0.167l-0.156-0.062c-0.172-0.07-0.345-0.142-0.512-0.217l-0.098-0.042
	c-0.15-0.069-0.295-0.137-0.44-0.209c-0.011-0.006-0.125-0.061-0.136-0.064c-0.1-0.05-0.2-0.103-0.328-0.173l-0.582-0.312
	c-0.059-0.039-0.12-0.075-0.178-0.105c-0.175-0.109-0.356-0.217-0.535-0.332c-0.042-0.024-0.077-0.053-0.147-0.1
	c-0.123-0.078-0.242-0.158-0.417-0.281l-0.07-0.05c-0.119-0.083-0.236-0.172-0.333-0.244c-0.062-0.045-0.123-0.095-0.223-0.17
	c-0.089-0.07-0.178-0.137-0.262-0.204l-0.155-0.127c-0.131-0.105-0.253-0.217-0.382-0.326c-0.017-0.017-0.031-0.028-0.05-0.042
	c-0.142-0.13-0.286-0.261-0.458-0.426l-0.504-0.5c-0.123-0.125-0.245-0.253-0.384-0.406c-0.128-0.142-0.25-0.284-0.415-0.478
	l-0.301-0.368c-0.036-0.053-0.075-0.106-0.123-0.161c-0.103-0.139-0.206-0.276-0.309-0.42c-2.771-3.818-3.495-11.787-1.336-14.706
	c0.217-0.292,0.178-0.704-0.094-0.951C281.963,106.903,281.791,106.841,281.621,106.841z"/>
<path d="M143.076,308.237c-0.269,0-0.514,0.215-0.514,0.514v9.393l-2.129-1.242c-0.133-0.078-0.284-0.117-0.434-0.117
	c-0.15,0-0.3,0.039-0.434,0.117l-5.116,2.984c-0.266,0.153-0.43,0.438-0.43,0.744v5.973c0,0.309,0.164,0.592,0.43,0.744l5.116,2.984
	c0.134,0.079,0.284,0.117,0.434,0.117c0.15,0,0.3-0.038,0.434-0.117l5.116-2.984c0.267-0.152,0.431-0.438,0.431-0.744v-2.986v-2.986
	v-10.289c0-0.305-0.163-0.584-0.424-0.738l-2.226-1.295C143.246,308.26,143.161,308.237,143.076,308.237z M126.329,316.784
	c-0.15,0-0.3,0.039-0.434,0.117l-5.116,2.984c-0.266,0.153-0.43,0.438-0.43,0.744v5.973c0,0.309,0.164,0.592,0.43,0.744l5.116,2.984
	c0.269,0.156,0.6,0.156,0.868,0l5.116-2.984c0.267-0.152,0.431-0.438,0.431-0.744v-5.973c0-0.309-0.164-0.591-0.431-0.744
	l-5.116-2.984C126.628,316.823,126.479,316.784,126.329,316.784z M153.668,316.784c-0.15,0-0.301,0.039-0.434,0.117l-5.116,2.984
	c-0.267,0.153-0.431,0.438-0.431,0.744v5.973c0,0.309,0.164,0.592,0.431,0.744l4.963,3.001c0.266,0.163,0.601,0.163,0.871,0.007
	l2.439-1.418c0.252-0.146,0.255-0.513,0-0.661l-5.287-3.114v-3.066l2.563-1.492l2.563,1.492v2.136c0,0.285,0.24,0.329,0.4,0.233
	c0.646-0.379,2.593-1.508,2.593-1.508c0.261-0.152,0.424-0.434,0.424-0.738v-1.588c0-0.309-0.164-0.591-0.431-0.744l-5.116-2.984
	C153.967,316.823,153.818,316.784,153.668,316.784z M112.659,316.788c-0.15,0-0.301,0.038-0.434,0.117l-5.116,2.98
	c-0.266,0.154-0.43,0.439-0.43,0.747v7.626c0,0.373,0.403,0.604,0.724,0.417l2.27-1.321c0.261-0.154,0.424-0.434,0.424-0.738v-4.516
	l2.563-1.494l2.563,1.494v4.516c0,0.305,0.163,0.584,0.424,0.738l2.27,1.321c0.321,0.188,0.724-0.044,0.724-0.417v-7.626
	c0-0.308-0.164-0.593-0.431-0.747l-5.116-2.98C112.959,316.826,112.809,316.788,112.659,316.788z M139.999,320.603l2.563,1.495
	v1.519v1.519l-2.563,1.495l-2.563-1.495v-3.037L139.999,320.603z M153.668,321.914l-1.465,0.854v1.705l1.465,0.852l1.465-0.852
	v-1.705L153.668,321.914z M133.003,328.739c-0.176,0-0.354,0.043-0.507,0.13l-4.806,2.776c-0.316,0.176-0.507,0.518-0.507,0.875
	v5.547c0,0.357,0.2,0.693,0.507,0.874l1.265,0.721c0.606,0.3,0.83,0.3,1.104,0.3c0.906,0,1.422-0.541,1.422-1.498v-5.479
	c0-0.083-0.065-0.144-0.14-0.144h-0.607c-0.084,0-0.144,0.068-0.144,0.144v5.479c0,0.415-0.439,0.842-1.155,0.484l-1.315-0.758
	c-0.043-0.025-0.073-0.077-0.073-0.127v-5.547c0-0.049,0.024-0.107,0.073-0.133l4.806-2.771c0.051-0.025,0.109-0.025,0.15,0
	l4.809,2.771c0.05,0.025,0.074,0.075,0.074,0.133v5.547c0,0.059-0.032,0.107-0.074,0.134l-4.809,2.78
	c-0.043,0.025-0.109,0.025-0.15,0l-1.228-0.731c-0.032-0.017-0.084-0.026-0.117-0.01c-0.34,0.2-0.408,0.226-0.724,0.333
	c-0.084,0.026-0.198,0.078,0.043,0.211l1.595,0.947c0.159,0.084,0.333,0.135,0.507,0.135c0.183,0,0.36-0.051,0.5-0.141l4.806-2.78
	c0.316-0.175,0.507-0.517,0.507-0.874v-5.547c0-0.357-0.2-0.692-0.507-0.875l-4.806-2.776
	C133.354,328.782,133.179,328.739,133.003,328.739z M140.499,331.299c-0.491,0-0.921,0.396-0.921,0.921
	c0,0.508,0.414,0.925,0.921,0.925s0.921-0.417,0.921-0.925C141.42,331.695,140.998,331.29,140.499,331.299z M140.489,331.446
	c0.434,0,0.785,0.342,0.785,0.773c0,0.424-0.352,0.774-0.785,0.785c-0.425,0-0.771-0.353-0.771-0.785
	C139.718,331.788,140.065,331.446,140.489,331.446z M140.152,331.696v1.037h0.197v-0.414h0.184c0.075,0,0.094,0.033,0.11,0.091
	c0,0.009,0.031,0.277,0.04,0.327h0.213c-0.024-0.05-0.041-0.191-0.05-0.277c-0.024-0.133-0.032-0.225-0.174-0.233
	c0.075-0.025,0.2-0.065,0.2-0.257c0-0.275-0.239-0.273-0.364-0.273H140.152z M140.349,331.862h0.167c0.051,0,0.15-0.001,0.15,0.141
	c0,0.059-0.026,0.152-0.16,0.15h-0.157V331.862z M134.292,332.71c-1.372,0-2.186,0.586-2.186,1.549c0,1.057,0.815,1.338,2.129,1.473
	c1.572,0.156,1.695,0.383,1.695,0.69c0,0.54-0.433,0.765-1.448,0.765c-1.273,0-1.553-0.316-1.646-0.948
	c-0.009-0.067-0.068-0.117-0.144-0.117h-0.624c-0.075,0-0.14,0.061-0.14,0.144c0,0.807,0.439,1.772,2.543,1.772
	c1.543-0.002,2.417-0.6,2.417-1.649c0-1.039-0.7-1.314-2.18-1.515c-1.497-0.2-1.645-0.3-1.645-0.651c0-0.289,0.123-0.67,1.228-0.67
	c0.989,0,1.358,0.217,1.508,0.881c0.017,0.066,0.063,0.107,0.13,0.107h0.624c0.041,0,0.076-0.017,0.1-0.041
	c0.026-0.031,0.042-0.065,0.033-0.106C136.589,333.245,135.831,332.71,134.292,332.71z"/>
<path d="M425.099,202.145c-0.428-0.01-0.801,0.154-0.993,0.627c-0.328,0.794,0.487,1.57,0.779,1.977
	c0.203,0.281,0.466,0.598,0.612,0.914c0.096,0.211,0.11,0.42,0.192,0.641c0.203,0.545,0.527,1.165,0.786,1.671
	c0.132,0.256,0.278,0.522,0.445,0.751c0.104,0.139,0.277,0.203,0.307,0.416c-0.171,0.242-0.183,0.615-0.278,0.922
	c-0.435,1.371-0.271,3.076,0.36,4.087c0.195,0.313,0.654,0.979,1.281,0.727c0.548-0.224,0.427-0.919,0.583-1.534
	c0.036-0.135,0.016-0.238,0.086-0.332v0.029c0.164,0.334,0.331,0.669,0.499,1c0.373,0.599,1.032,1.221,1.588,1.645
	c0.288,0.217,0.516,0.595,0.89,0.723v-0.027h-0.028c-0.072-0.115-0.186-0.16-0.278-0.25c-0.217-0.214-0.459-0.48-0.638-0.727
	c-0.508-0.687-0.957-1.441-1.363-2.225c-0.195-0.373-0.366-0.787-0.53-1.168c-0.064-0.149-0.064-0.369-0.195-0.447
	c-0.182,0.281-0.445,0.505-0.584,0.836c-0.221,0.527-0.253,1.172-0.335,1.837c-0.05,0.017-0.028,0.003-0.053,0.028
	c-0.389-0.096-0.527-0.494-0.67-0.837c-0.363-0.864-0.435-2.261-0.11-3.253c0.082-0.261,0.456-1.072,0.307-1.311
	c-0.071-0.239-0.313-0.374-0.445-0.556c-0.167-0.224-0.331-0.52-0.444-0.779c-0.3-0.677-0.581-1.46-0.897-2.144
	c-0.149-0.327-0.402-0.655-0.612-0.947c-0.231-0.32-0.488-0.555-0.67-0.946c-0.061-0.136-0.148-0.356-0.053-0.499
	c0.028-0.096,0.071-0.135,0.167-0.166c0.16-0.125,0.609,0.039,0.78,0.109c0.444,0.186,0.818,0.363,1.196,0.613
	c0.181,0.121,0.362,0.352,0.583,0.419h0.249c0.396,0.089,0.833,0.024,1.196,0.14c0.648,0.195,1.229,0.502,1.752,0.832
	c1.605,1.012,2.919,2.453,3.812,4.173c0.146,0.277,0.21,0.545,0.338,0.836c0.253,0.592,0.577,1.204,0.833,1.78
	c0.254,0.581,0.503,1.16,0.862,1.641c0.188,0.254,0.922,0.393,1.253,0.531c0.231,0.1,0.615,0.203,0.833,0.335
	c0.423,0.253,0.829,0.556,1.225,0.836c0.199,0.14,0.805,0.441,0.836,0.694c-0.979-0.025-1.727,0.064-2.363,0.334
	c-0.182,0.08-0.474,0.08-0.502,0.307c0.096,0.104,0.114,0.26,0.192,0.389c0.152,0.245,0.409,0.576,0.641,0.751
	c0.253,0.188,0.509,0.392,0.779,0.56c0.478,0.288,1.011,0.455,1.475,0.747c0.271,0.175,0.544,0.392,0.808,0.584
	c0.132,0.099,0.217,0.249,0.389,0.31v-0.028c-0.09-0.114-0.111-0.271-0.192-0.389l-0.367-0.366c-0.353-0.467-0.801-0.88-1.277-1.221
	c-0.382-0.274-1.232-0.645-1.39-1.086l-0.028-0.029c0.268-0.028,0.584-0.127,0.833-0.195c0.421-0.11,0.791-0.082,1.222-0.192
	c0.196-0.058,0.392-0.114,0.587-0.167v-0.114c-0.217-0.22-0.373-0.52-0.612-0.723c-0.622-0.53-1.303-1.062-2.004-1.503
	c-0.389-0.244-0.869-0.404-1.278-0.611c-0.139-0.072-0.38-0.107-0.474-0.225c-0.217-0.274-0.334-0.623-0.501-0.943
	c-0.35-0.672-0.69-1.406-1.001-2.115c-0.21-0.48-0.349-0.957-0.612-1.391c-1.264-2.076-2.624-3.332-4.73-4.564
	c-0.449-0.264-0.987-0.363-1.557-0.498c-0.31-0.021-0.612-0.039-0.922-0.058c-0.186-0.078-0.381-0.306-0.556-0.419
	C426.672,202.633,425.811,202.156,425.099,202.145z M428.113,205.164c-0.202-0.004-0.349,0.025-0.502,0.057v0.029h0.028
	c0.097,0.199,0.271,0.327,0.393,0.498c0.092,0.195,0.181,0.392,0.273,0.588l0.028-0.029c0.172-0.121,0.253-0.316,0.253-0.612
	c-0.071-0.071-0.081-0.163-0.139-0.249C428.366,205.328,428.213,205.264,428.113,205.164z M398.395,216.724
	c-0.273,0.011-0.573,0.063-0.897,0.167c-0.54,0.164-0.808,0.488-0.808,1.146v6.893h1.826v-6.726l2.531,5.75
	c0.313,0.716,0.74,0.972,1.577,0.972c0.84,0,1.249-0.256,1.562-0.972l2.531-5.604v6.579h1.823v-6.893
	c0-0.658-0.264-0.982-0.809-1.146c-1.296-0.409-2.168-0.057-2.559,0.83l-2.6,5.846l-2.514-5.846
	C399.776,217.055,399.207,216.691,398.395,216.724z M420.613,216.727c-0.72,0-2.959,0.086-2.959,1.823v1.125
	c0,0.798,0.701,1.449,2.222,1.609c0.171,0.011,0.342,0.024,0.513,0.024c0,0,1.772-0.035,1.822-0.024
	c1.025,0,0.911,0.796,0.911,0.911v0.912c0,0.123-0.027,0.91-0.922,0.91h-4.546v0.912h4.564c0.598,0,1.178-0.125,1.641-0.343
	c0.769-0.352,1.086-0.828,1.086-1.454v-1.304c0-1.399-1.737-1.456-2.734-1.456h-1.822c-0.716,0-0.826-0.436-0.911-0.912v-0.911
	c0.085-0.363,0.245-0.854,0.879-0.911h4.589v-0.912H420.613z M427.662,216.727c-1.347,0.186-1.82,0.855-1.82,1.823v4.558
	c0,0.886,0.496,1.42,1.514,1.697c0.342,0.096,0.651,0.135,0.943,0.135l2.029-0.01h1.192l1.015,0.91h2.05l-1.409-1.27
	c0.662-0.273,0.869-0.694,0.869-1.482v-4.538c0-0.968-0.631-1.638-1.976-1.823H427.662z M434.97,216.727v6.342
	c0,1.1,0.624,1.719,2.272,1.844c0.152,0.006,0.309,0.018,0.462,0.018h4.557v-0.912h-4.211c-0.94,0-1.257-0.395-1.257-0.957v-6.334
	H434.97z M428.747,217.639h2.346c0.62,0,1.036,0.498,1.129,0.911c0,0,0.015,4.243,0.015,4.558c0,0.312-0.175,0.455-0.175,0.455
	l-0.495-0.455h-2.064l1.015,0.91h-1.77c-0.634,0-0.989-0.47-1.082-0.91v-4.465C427.665,218.158,428.035,217.639,428.747,217.639z
	 M409.452,219.461c0.035,0.035,0,3.884,0,3.959c0.015,0.797,1.025,1.495,2.609,1.51h2.859v0.061c0,0.17,0.124,0.74-0.912,0.85
	c-0.011,0-4.546,0-4.557,0v0.912h4.753c0.804-0.024,2.549-0.207,2.538-1.603c0-0.024,0.007-5.688,0-5.688h-1.822v4.557
	c-0.029,0-2.258,0.007-2.706,0c-0.88-0.014-0.954-0.516-0.939-0.707v-3.85H409.452z"/>
<path d="M419.783,268.992c-0.213-0.234-0.521-0.369-0.841-0.369h-44.507c-0.32,0-0.627,0.135-0.842,0.369
	c-0.217,0.236-0.324,0.553-0.293,0.873l4.01,44.912c0.039,0.471,0.369,0.863,0.822,0.996l18.24,5.207
	c0.098,0.031,0.205,0.045,0.312,0.045s0.209-0.014,0.312-0.045l18.253-5.207c0.454-0.133,0.778-0.525,0.823-0.996l4.005-44.912
	C420.108,269.545,420.002,269.229,419.783,268.992z M410.186,284.479h-21.431l0.512,5.799h20.402l-1.53,17.135l-11.459,3.463
	l-0.111-0.035l-11.324-3.432l-0.619-6.982h5.549l0.24,2.711l6.332,1.326l6.217-1.326l0.663-7.334h-19.415l-1.508-16.865h27.977
	L410.186,284.479z"/>
<path d="M598.773,86.763c-0.888-0.03-1.817,0.125-2.75,0.427c-1.864,0.604-3.817,1.782-5.822,3.413
	c-0.785,0.639-1.578,1.37-2.374,2.146c-0.777-0.756-1.554-1.467-2.322-2.092c-2.004-1.63-3.952-2.808-5.812-3.411
	c-1.86-0.603-3.712-0.622-5.231,0.256s-2.429,2.489-2.836,4.401c-0.408,1.912-0.363,4.189,0.046,6.739
	c0.143,0.886,0.345,1.814,0.576,2.761c-0.868,0.263-1.712,0.54-2.494,0.846c-2.36,0.922-4.313,2.024-5.735,3.337
	s-2.341,2.905-2.341,4.655c0,1.748,0.919,3.339,2.341,4.652c1.422,1.312,3.375,2.417,5.735,3.339
	c0.837,0.326,1.742,0.621,2.677,0.899c-0.336,1.256-0.608,2.475-0.794,3.631c-0.41,2.552-0.453,4.829-0.045,6.746
	c0.409,1.917,1.318,3.536,2.846,4.419c1.527,0.882,3.387,0.859,5.251,0.256c1.864-0.604,3.815-1.78,5.82-3.411
	c0.779-0.633,1.566-1.356,2.354-2.123c0.792,0.771,1.583,1.498,2.364,2.134c2.004,1.63,3.954,2.806,5.814,3.409
	c1.859,0.603,3.711,0.621,5.23-0.256c1.52-0.878,2.427-2.489,2.835-4.401c0.407-1.912,0.362-4.188-0.047-6.737
	c-0.187-1.159-0.459-2.381-0.797-3.642c0.966-0.285,1.9-0.588,2.761-0.924c2.361-0.922,4.314-2.026,5.736-3.339
	c1.422-1.313,2.341-2.904,2.341-4.652c0-1.75-0.919-3.343-2.341-4.655s-3.375-2.415-5.736-3.337
	c-0.793-0.311-1.649-0.591-2.531-0.856c0.232-0.952,0.439-1.889,0.583-2.779c0.409-2.552,0.453-4.831,0.044-6.748
	c-0.408-1.917-1.32-3.535-2.848-4.417C600.509,87.007,599.662,86.792,598.773,86.763z M598.669,89.081
	c0.558,0.016,1.033,0.148,1.439,0.383c0.813,0.47,1.415,1.383,1.736,2.888c0.32,1.504,0.309,3.536-0.069,5.894
	c-0.13,0.807-0.318,1.662-0.532,2.539c-2.33-0.561-4.883-0.978-7.604-1.222c-1.366-1.893-2.77-3.616-4.185-5.146
	c0.748-0.73,1.492-1.414,2.218-2.004c1.853-1.507,3.605-2.532,5.068-3.006C597.472,89.169,598.112,89.066,598.669,89.081z
	 M577.052,89.088c0.561-0.016,1.202,0.087,1.936,0.325c1.468,0.476,3.225,1.501,5.078,3.009c0.711,0.578,1.438,1.248,2.171,1.962
	c-1.426,1.542-2.841,3.28-4.216,5.19c-2.71,0.249-5.253,0.668-7.571,1.23c-0.213-0.872-0.4-1.723-0.53-2.525
	c-0.379-2.359-0.388-4.392-0.066-5.9c0.321-1.508,0.928-2.43,1.749-2.903C576.012,89.238,576.491,89.104,577.052,89.088z
	 M587.863,96.056c0.928,1.01,1.855,2.115,2.776,3.305c-0.904-0.038-1.82-0.061-2.75-0.061c-0.948,0-1.881,0.023-2.804,0.062
	C586.008,98.172,586.936,97.067,587.863,96.056z M587.89,101.601c1.549,0,3.06,0.063,4.527,0.171
	c1.011,1.451,1.998,2.992,2.939,4.621c0.826,1.433,1.575,2.862,2.256,4.274c-0.688,1.431-1.449,2.88-2.287,4.332
	c-0.737,1.278-1.509,2.492-2.292,3.662c-1.658,0.139-3.378,0.216-5.144,0.216c-1.809,0-3.566-0.082-5.262-0.227
	c-0.771-1.154-1.527-2.35-2.254-3.606c-0.837-1.449-1.593-2.896-2.28-4.323c0.689-1.437,1.45-2.891,2.291-4.348
	c0.937-1.622,1.921-3.152,2.926-4.597C584.795,101.667,586.322,101.601,587.89,101.601z M595.35,102.057
	c1.878,0.233,3.642,0.56,5.282,0.95c-0.487,1.596-1.087,3.263-1.813,4.983c-0.472-0.91-0.961-1.822-1.488-2.736
	C596.69,104.146,596.023,103.089,595.35,102.057z M580.308,102.075c-0.66,1.013-1.31,2.05-1.937,3.135
	c-0.535,0.926-1.033,1.852-1.511,2.772c-0.72-1.71-1.316-3.368-1.8-4.955C576.689,102.635,578.442,102.312,580.308,102.075z
	 M602.886,103.613c0.808,0.244,1.587,0.498,2.303,0.778c2.176,0.85,3.896,1.855,5.013,2.886c1.115,1.029,1.6,2.012,1.6,2.964
	s-0.484,1.934-1.6,2.963c-1.116,1.029-2.837,2.036-5.013,2.886c-0.795,0.311-1.669,0.592-2.576,0.859
	c-0.647-2.004-1.475-4.094-2.459-6.228C601.285,108.271,602.198,105.882,602.886,103.613z M572.855,103.624
	c0.68,2.247,1.582,4.612,2.697,7.037c-0.99,2.146-1.821,4.249-2.472,6.264c-0.877-0.261-1.721-0.534-2.49-0.835
	c-2.176-0.85-3.896-1.856-5.013-2.886s-1.6-2.011-1.6-2.963s0.483-1.935,1.6-2.964c1.116-1.03,2.837-2.036,5.013-2.886
	C571.295,104.116,572.062,103.865,572.855,103.624z M587.89,105.007c-3.132,0-5.695,2.563-5.695,5.696
	c0,3.131,2.563,5.695,5.695,5.695s5.695-2.564,5.695-5.695C593.585,107.571,591.021,105.007,587.89,105.007z M576.888,113.398
	c0.479,0.925,0.978,1.854,1.515,2.785c0.421,0.729,0.851,1.438,1.286,2.134c-1.529-0.213-2.984-0.48-4.35-0.799
	C575.773,116.188,576.293,114.807,576.888,113.398z M598.848,113.398c0.597,1.412,1.116,2.795,1.553,4.129
	c-1.37,0.317-2.829,0.585-4.363,0.797c0.441-0.705,0.878-1.423,1.304-2.16C597.874,115.239,598.371,114.317,598.848,113.398z
	 M574.683,119.73c2.062,0.488,4.296,0.863,6.666,1.107c1.582,2.287,3.229,4.344,4.888,6.141c-0.742,0.724-1.477,1.402-2.196,1.987
	c-1.852,1.506-3.607,2.528-5.07,3.004c-1.463,0.474-2.555,0.411-3.368-0.059c-0.813-0.469-1.413-1.384-1.733-2.888
	s-0.312-3.534,0.066-5.892C574.106,122.062,574.363,120.917,574.683,119.73z M601.059,119.739c0.321,1.194,0.58,2.344,0.752,3.42
	c0.38,2.358,0.389,4.392,0.067,5.9c-0.322,1.508-0.924,2.432-1.744,2.905c-0.821,0.474-1.924,0.536-3.392,0.061
	c-1.467-0.477-3.224-1.501-5.077-3.009c-0.724-0.589-1.464-1.273-2.211-2.002c1.67-1.805,3.329-3.87,4.921-6.172
	C596.751,120.599,598.992,120.226,601.059,119.739z M584.321,121.071c1.169,0.063,2.354,0.107,3.568,0.107
	c1.174,0,2.32-0.041,3.453-0.101c-1.158,1.562-2.338,2.981-3.514,4.261C586.655,124.057,585.477,122.634,584.321,121.071z"/>
<path d="M180.537,221.956h-41.771c-1.678,0-3.039,1.362-3.039,3.039v41.767c0,1.678,1.361,3.039,3.039,3.039h41.766
	c1.678,0,3.039-1.361,3.039-3.035v-41.771C183.571,223.318,182.21,221.956,180.537,221.956z M161.927,258.618
	c0,4.553-2.67,6.626-6.568,6.626c-3.524,0-6.065-2.362-7.102-4.557l3.582-2.167c0.689,1.224,1.74,2.167,3.252,2.167
	c1.446,0,2.278-0.565,2.278-2.764v-14.323h4.557V258.618z M171.811,265.244c-4.036,0-6.328-2.033-7.605-4.557l3.417-2.278
	c0.93,1.521,1.945,2.978,4.089,2.978c1.802,0,2.746-0.899,2.746-2.146c0-1.486-0.979-2.016-2.959-2.883l-1.086-0.468
	c-3.137-1.335-5.224-3.008-5.224-6.55c0-3.258,2.488-5.74,6.368-5.74c2.763,0,4.748,0.961,6.181,3.479l-3.382,2.176
	c-0.748-1.339-1.549-1.864-2.799-1.864c-1.273,0-2.078,0.81-2.078,1.864c0,1.304,0.805,1.829,2.67,2.639l1.085,0.468
	c3.698,1.579,5.78,3.194,5.78,6.826C179.015,263.1,175.94,265.244,171.811,265.244z"/>
<path d="M488.644,42.458c-1.99,0.011-3.715,0.489-5.16,1.201c-0.529-1.055-1.063-1.983-1.154-2.674
	c-0.104-0.805-0.227-1.286-0.1-2.246c0.125-0.96,0.682-2.32,0.673-2.421c-0.008-0.102-0.125-0.59-1.272-0.6
	c-1.148-0.008-2.131,0.221-2.246,0.524c-0.117,0.303-0.337,0.985-0.475,1.697c-0.201,1.041-2.292,4.754-3.48,6.697
	c-0.388-0.759-0.719-1.426-0.786-1.955c-0.104-0.805-0.228-1.286-0.101-2.246c0.126-0.96,0.682-2.32,0.673-2.421
	c-0.008-0.102-0.124-0.59-1.272-0.599c-1.147-0.008-2.13,0.221-2.246,0.524s-0.239,1.012-0.474,1.697
	c-0.236,0.686-3.016,6.879-3.744,8.484c-0.371,0.818-0.693,1.476-0.92,1.924c-0.002-0.001-0.002-0.002-0.002-0.002
	s-0.014,0.03-0.039,0.081c-0.194,0.381-0.311,0.593-0.311,0.593s0,0.003,0.003,0.008c-0.155,0.28-0.319,0.542-0.401,0.542
	c-0.058,0-0.172-0.748,0.025-1.771c0.412-2.149,1.406-5.5,1.396-5.615c-0.004-0.059,0.186-0.642-0.648-0.949
	c-0.811-0.296-1.1,0.199-1.174,0.2c-0.072,0.001-0.125,0.174-0.125,0.174s0.903-3.768-1.723-3.768c-1.641,0-3.914,1.795-5.035,3.422
	c-0.706,0.385-2.219,1.21-3.824,2.093c-0.616,0.338-1.244,0.684-1.842,1.013c-0.041-0.044-0.081-0.09-0.123-0.134
	c-3.183-3.396-9.065-5.797-8.816-10.362c0.092-1.66,0.668-6.03,11.306-11.33c8.714-4.342,15.688-3.147,16.895-0.499
	c1.723,3.783-3.729,10.815-12.776,11.829c-3.449,0.386-5.264-0.95-5.715-1.448c-0.476-0.524-0.547-0.548-0.725-0.448
	c-0.289,0.16-0.105,0.623,0,0.898c0.271,0.703,1.379,1.95,3.27,2.57c1.664,0.546,5.711,0.845,10.606-1.048
	c5.483-2.121,9.765-8.021,8.507-12.952c-1.277-5.016-9.594-6.664-17.465-3.869c-4.684,1.664-9.754,4.276-13.4,7.686
	c-4.336,4.055-5.026,7.584-4.741,9.059c1.013,5.24,8.233,8.652,11.126,11.181c-0.143,0.079-0.277,0.152-0.398,0.22
	c-1.451,0.717-6.955,3.598-8.332,6.643c-1.562,3.452,0.248,5.93,1.447,6.264c3.714,1.033,7.525-0.827,9.574-3.881
	c2.048-3.054,1.797-7.031,0.857-8.847c-0.012-0.023-0.025-0.045-0.037-0.067c0.375-0.222,0.757-0.446,1.135-0.669
	c0.738-0.433,1.463-0.837,2.092-1.18c-0.352,0.964-0.609,2.119-0.744,3.788c-0.156,1.96,0.646,4.494,1.697,5.49
	c0.463,0.439,1.021,0.449,1.373,0.449c1.224,0,1.782-1.017,2.396-2.222c0.754-1.476,1.422-3.194,1.422-3.194
	s-0.84,4.642,1.448,4.642c0.833,0,1.671-1.081,2.045-1.631c0.001,0.006,0.001,0.009,0.001,0.009s0.021-0.035,0.064-0.108
	c0.086-0.132,0.135-0.216,0.135-0.216s0.003-0.009,0.005-0.024c0.335-0.581,1.077-1.907,2.191-4.094
	c1.438-2.825,2.819-6.363,2.819-6.363s0.129,0.866,0.55,2.295c0.247,0.842,0.772,1.773,1.188,2.665
	c-0.333,0.463-0.539,0.729-0.539,0.729s0.002,0.004,0.007,0.014c-0.268,0.354-0.566,0.736-0.88,1.109
	c-1.137,1.354-2.489,2.898-2.67,3.345c-0.214,0.525-0.164,0.912,0.249,1.223c0.3,0.226,0.838,0.261,1.396,0.224
	c1.021-0.068,1.74-0.323,2.096-0.476c0.552-0.195,1.195-0.502,1.799-0.947c1.114-0.819,1.786-1.991,1.723-3.544
	c-0.035-0.855-0.31-1.703-0.654-2.504c0.102-0.146,0.203-0.292,0.304-0.44c1.757-2.569,3.119-5.391,3.119-5.391
	s0.13,0.866,0.55,2.295c0.213,0.725,0.633,1.514,1.011,2.289c-1.652,1.342-2.676,2.901-3.033,3.924
	c-0.657,1.892-0.143,2.75,0.823,2.944c0.438,0.089,1.057-0.112,1.521-0.309c0.58-0.191,1.274-0.512,1.924-0.989
	c1.113-0.819,2.186-1.966,2.121-3.519c-0.029-0.706-0.221-1.408-0.48-2.083c1.399-0.583,3.213-0.908,5.522-0.637
	c4.954,0.579,5.926,3.671,5.74,4.965c-0.186,1.295-1.225,2.006-1.572,2.222s-0.453,0.289-0.424,0.449
	c0.043,0.232,0.203,0.223,0.499,0.173c0.408-0.068,2.601-1.052,2.695-3.442C496.7,45.763,493.792,42.431,488.644,42.458z
	 M450.461,55.331c-1.64,1.79-3.934,2.466-4.916,1.897c-1.062-0.615-0.642-3.251,1.373-5.15c1.227-1.157,2.811-2.224,3.862-2.881
	c0.239-0.144,0.591-0.355,1.018-0.612c0.07-0.04,0.11-0.062,0.11-0.062l-0.001-0.002c0.082-0.049,0.167-0.1,0.254-0.152
	C452.894,51.072,452.184,53.452,450.461,55.331z M462.414,47.204c-0.571,1.394-1.768,4.958-2.496,4.767
	c-0.625-0.165-1.006-2.875-0.125-5.54c0.443-1.342,1.391-2.946,1.947-3.569c0.896-1.001,1.882-1.33,2.121-0.923
	C464.168,42.456,462.773,46.331,462.414,47.204z M472.291,51.917c-0.243,0.126-0.465,0.207-0.567,0.145
	c-0.076-0.045,0.1-0.212,0.1-0.212s1.236-1.329,1.724-1.935c0.282-0.352,0.611-0.77,0.968-1.237
	c0.003,0.047,0.004,0.093,0.004,0.139C474.515,50.41,472.977,51.484,472.291,51.917z M479.899,50.182
	c-0.181-0.129-0.151-0.544,0.443-1.839c0.233-0.508,0.765-1.364,1.691-2.183c0.107,0.336,0.173,0.659,0.171,0.959
	C482.192,49.124,480.763,49.872,479.899,50.182z"/>
<path d="M76.354,163.989l3.417,38.732l15.948,4.557l15.948-4.557l3.417-38.732H76.354z M105.519,182.215l-0.802,13.1l-8.997,2.964
	l-8.998-2.964l-0.343-6.265h4.557l0.111,2.848l4.672,1.593l4.672-1.593l0.339-5.126H90.709l-0.231-4.557h10.484l0.338-4.557H85.583
	l-0.343-4.557h20.848L105.519,182.215z"/>
<path d="M124.867,92.502c-10.025,0-18.188,8.163-18.188,18.188c0,10.025,8.163,18.189,18.188,18.189
	c10.026,0,18.189-8.164,18.189-18.189C143.056,100.665,134.893,92.502,124.867,92.502z M124.867,93.334
	c9.566,0,17.356,7.79,17.356,17.356c0,9.565-7.79,17.356-17.356,17.356c-9.564,0-17.355-7.791-17.355-17.356
	C107.511,101.125,115.302,93.334,124.867,93.334z M124.867,95.087c-5.45,0-10.228,2.778-13.017,7.013
	c0.367,0.011,0.713,0.044,1.008,0.044c1.633,0,4.164-0.219,4.164-0.219c0.838-0.049,0.926,1.216,0.088,1.315
	c0,0-0.86,0.082-1.798,0.131l5.698,16.874l3.419-10.212l-2.455-6.662c-0.838-0.049-1.621-0.131-1.621-0.131
	c-0.844-0.049-0.751-1.364,0.088-1.315c0,0,2.585,0.219,4.12,0.219c1.632,0,4.164-0.219,4.164-0.219
	c0.843-0.049,0.925,1.216,0.087,1.315c0,0-0.859,0.082-1.797,0.131l5.654,16.742l1.533-5.171c0.789-2.027,1.184-3.704,1.184-5.041
	c0-1.928-0.674-3.26-1.271-4.295c-0.789-1.288-1.533-2.395-1.533-3.682c0-1.43,1.096-2.761,2.629-2.761c0.072,0,0.149-0.005,0.22,0
	C132.653,96.622,128.927,95.087,124.867,95.087z M138.542,103.196c0.071,0.499,0.132,1.046,0.132,1.622
	c0,1.583-0.295,3.342-1.184,5.566l-4.777,13.763c4.635-2.707,7.758-7.703,7.758-13.456
	C140.47,107.979,139.758,105.415,138.542,103.196z M110.623,104.335c-0.865,1.939-1.358,4.092-1.358,6.355
	c0,6.174,3.604,11.494,8.81,14.025L110.623,104.335z M125.13,112.05l-4.646,13.586c1.396,0.411,2.849,0.657,4.382,0.657
	c1.813,0,3.551-0.35,5.173-0.92c-0.039-0.065-0.056-0.099-0.088-0.175L125.13,112.05z"/>
<g>
	<path fill="#010002" d="M51.786,247.762c0.23-0.171,0.346-0.448,0.346-0.833c0-0.213-0.038-0.388-0.115-0.524
		s-0.18-0.243-0.308-0.32s-0.275-0.131-0.441-0.16c-0.167-0.029-0.34-0.045-0.52-0.045h-1.883v2.139h2.037
		C51.26,248.018,51.555,247.933,51.786,247.762z"/>
	<path fill="#010002" d="M52.106,249.689c-0.266-0.201-0.615-0.302-1.051-0.302h-2.19v2.511h2.152c0.196,0,0.385-0.02,0.563-0.058
		s0.337-0.103,0.474-0.192c0.137-0.089,0.246-0.212,0.327-0.364c0.081-0.154,0.121-0.351,0.121-0.589
		C52.502,250.225,52.371,249.89,52.106,249.689z"/>
	<path fill="#010002" d="M55.757,241.337H44.55c-1.076,0-1.948,0.873-1.948,1.948v11.207l0,0c0,1.076,0.873,1.948,1.948,1.948
		h11.207c1.076,0,1.948-0.872,1.948-1.948v-11.207C57.706,242.209,56.833,241.337,55.757,241.337z M54.244,252.008
		c-0.179,0.337-0.42,0.612-0.723,0.825c-0.303,0.214-0.649,0.372-1.038,0.475c-0.388,0.102-0.787,0.152-1.197,0.152h-4.431v-9.144
		h4.303c0.436,0,0.833,0.038,1.19,0.115c0.359,0.076,0.667,0.203,0.923,0.378c0.257,0.175,0.455,0.407,0.596,0.698
		c0.141,0.29,0.211,0.649,0.211,1.075c0,0.462-0.104,0.846-0.313,1.153c-0.209,0.307-0.519,0.559-0.929,0.756
		c0.564,0.162,0.984,0.445,1.262,0.851c0.277,0.406,0.417,0.896,0.417,1.467C54.514,251.271,54.423,251.67,54.244,252.008z"/>
</g>
<path d="M545.602,135.289c-6.506,0-11.78,5.273-11.78,11.78c0,6.506,5.274,11.78,11.78,11.78s11.779-5.274,11.779-11.78
	C557.381,140.562,552.107,135.289,545.602,135.289z M536.353,147.192l9.126,9.125C540.467,156.252,536.418,152.203,536.353,147.192
	L536.353,147.192z M547.672,156.086l-11.088-11.088c0.939-4.112,4.62-7.18,9.018-7.18c3.072,0,5.796,1.499,7.479,3.806l-1.281,1.13
	c-1.365-1.957-3.631-3.238-6.197-3.238c-3.268,0-6.051,2.076-7.102,4.98l9.673,9.672c2.349-0.851,4.155-2.834,4.761-5.29h-4.009
	v-1.811h5.928C554.852,151.466,551.783,155.146,547.672,156.086L547.672,156.086z"/>
<g>
	<polygon points="258.246,339.544 256.328,335.536 254.641,339.544 	"/>
	<path d="M256.299,329.207l-9.104,3.244l1.391,12.045l7.713,4.283l7.836-4.333l1.514-12.054L256.299,329.207z M260.235,344.115
		l-1.247-2.885h-5.089l-1.139,2.848l-2.119,0.037l5.673-12.623l0,0l5.947,12.658L260.235,344.115z"/>
</g>
</svg>
