<?xml version="1.0" encoding="utf-8"?>
<!-- Generator: Adobe Illustrator 16.0.0, SVG Export Plug-In . SVG Version: 6.00 Build 0)  -->
<!DOCTYPE svg PUBLIC "-//W3C//DTD SVG 1.1//EN" "http://www.w3.org/Graphics/SVG/1.1/DTD/svg11.dtd">
<svg version="1.1" id="Layer_1" xmlns="http://www.w3.org/2000/svg" xmlns:xlink="http://www.w3.org/1999/xlink" x="0px" y="0px"
	 width="640px" height="400px" viewBox="0 0 640 400" enable-background="new 0 0 640 400" xml:space="preserve">
<path d="M293.168,320.838c-0.473,0-0.865,0.396-0.865,0.864v16.428c0,0.479,0.392,0.864,0.865,0.864h16.427
	c0.473,0,0.865-0.396,0.865-0.864v-16.428c0-0.473-0.392-0.864-0.865-0.864H293.168z M293.168,321.702h16.427v16.428h-16.427
	V321.702z M298.325,325.161l-2.13,9.511h1.037l0.617-2.781h2.075l0.602,2.781h1.051l-2.075-9.511H298.325z M298.886,326.215h0.042
	c0.11,0.692,0.235,1.467,0.374,2.131l0.491,2.438l-1.77-0.001l0.476-2.42C298.637,327.723,298.775,326.922,298.886,326.215z
	 M304.635,327.755c-0.582,0-1.066,0.211-1.409,0.521c-0.344,0.311-0.554,0.695-0.691,1.067c-0.273,0.741-0.268,1.451-0.268,1.456
	c-0.008,0.064-0.1,0.914,0.16,1.837c0.136,0.48,0.371,0.984,0.793,1.385c0.422,0.394,1.033,0.646,1.801,0.646
	c0.914,0,1.737-0.418,1.737-0.418l-0.378-0.778c0,0-0.725,0.331-1.359,0.331c-0.587,0-0.945-0.17-1.212-0.419
	c-0.268-0.249-0.443-0.603-0.549-0.979c-0.13-0.461-0.146-0.865-0.143-1.165h3.885v-0.438c0,0,0.006-0.718-0.268-1.461
	c-0.138-0.372-0.348-0.763-0.691-1.068S305.216,327.755,304.635,327.755z M304.635,328.619c0.386,0,0.627,0.116,0.829,0.298
	c0.201,0.183,0.354,0.447,0.458,0.731c0.132,0.354,0.116,0.505,0.135,0.729h-2.846c0.02-0.225,0.003-0.374,0.135-0.729
	c0.105-0.284,0.257-0.555,0.458-0.731C304.006,328.735,304.248,328.619,304.635,328.619z"/>
<path d="M541.904,285.424c-2.979,0.023-4.922,1.387-5.049,1.479c-0.138,0.102-0.232,0.242-0.271,0.404l-2.26,9.606
	c-0.057,0.235,0.021,0.483,0.188,0.653c0.174,0.173,0.424,0.24,0.655,0.185c2.378-0.752,5.983-0.856,9.688,1.212
	c0.104,0.061,0.221,0.089,0.339,0.089c0.094,0,0.188-0.019,0.273-0.056c0.195-0.086,0.349-0.262,0.396-0.471l2.646-10.383
	c0.072-0.291-0.046-0.603-0.301-0.761C545.854,285.875,543.692,285.409,541.904,285.424z M550.354,289.02
	c-0.106-0.012-0.219,0.004-0.32,0.045c-0.21,0.082-0.367,0.26-0.423,0.479l-2.634,10.315c-0.069,0.277,0.035,0.572,0.27,0.738
	c2.396,1.721,4.812,2.229,6.854,2.229c1.979,0,3.608-0.479,4.521-0.829c0.218-0.082,0.377-0.27,0.435-0.49l2.604-11.074
	c0.063-0.281-0.051-0.574-0.291-0.734c-0.239-0.161-0.561-0.157-0.795,0.012c-0.176,0.125-4.316,3.113-9.908-0.58
	C550.569,289.066,550.463,289.029,550.354,289.02z M538.382,298.663c-1.923,0.049-3.491,0.569-4.362,0.903
	c-0.217,0.082-0.377,0.267-0.434,0.49l-2.582,10.979c-0.014,0.055-0.019,0.141-0.019,0.188c0,0.267,0.146,0.498,0.378,0.619
	c0.229,0.117,0.727-0.053,0.727-0.053s4.101-3.04,9.404,0.286c0.106,0.062,0.229,0.097,0.354,0.097c0.093,0,0.185-0.017,0.271-0.054
	c0.202-0.084,0.354-0.258,0.408-0.472l2.628-10.307c0.073-0.293-0.046-0.602-0.299-0.764
	C542.583,299.037,540.306,298.613,538.382,298.663z M546.982,302.191c-0.108-0.01-0.22,0.008-0.32,0.049
	c-0.206,0.084-0.356,0.26-0.414,0.475l-2.631,10.312c-0.072,0.279,0.038,0.576,0.274,0.744c2.577,1.801,4.938,2.312,6.783,2.312
	c0.604,0,1.146-0.06,1.628-0.14c2.135-0.359,3.447-1.303,3.505-1.34c0.146-0.106,0.246-0.301,0.274-0.486l2.229-9.465
	c0.057-0.235-0.02-0.483-0.188-0.654c-0.174-0.171-0.424-0.24-0.653-0.184c-3.562,0.884-7.104,0.377-10.183-1.521
	C547.194,302.234,547.091,302.201,546.982,302.191z"/>
<path d="M258.699,193.493c-1.245,0-2.278,1.033-2.278,2.278v43.29c0,1.244,1.033,2.277,2.278,2.277h43.288
	c1.245,0,2.278-1.033,2.278-2.277V195.77c0-1.245-1.034-2.278-2.278-2.278L258.699,193.493L258.699,193.493z M258.699,195.77h43.288
	v43.289h-43.288V195.77L258.699,195.77z M274.564,204.884l-5.613,25.062h2.732l1.624-7.323h5.469l1.584,7.323h2.77l-5.466-25.062
	H274.564z M289.153,204.884c-0.939,0-1.691,0.714-1.691,1.78s0.714,1.779,1.653,1.779h0.038c1.051,0,1.727-0.713,1.727-1.779
	C290.88,205.596,290.205,204.884,289.153,204.884z M276.044,207.662h0.109c0.292,1.822,0.621,3.863,0.985,5.613l1.293,6.418
	l-4.664-0.002l1.255-6.379C275.388,211.636,275.751,209.521,276.044,207.662z M287.747,210.58v19.365h2.848V210.58H287.747z"/>
<path d="M553.279,193.493c-1.246,0-2.279,1.033-2.279,2.277v43.289c0,1.244,1.033,2.278,2.279,2.278h43.288
	c1.238,0,2.271-1.034,2.271-2.278V195.77c0-1.244-1.033-2.277-2.271-2.277H553.279L553.279,193.493z M553.279,195.771h43.288v43.29
	h-43.288V195.771z M565.809,204.884l0.041,25.062h2.812v-25.062H565.809z M582.327,204.884v8.964v0.008
	c-0.691-1.487-1.91-2.135-3.188-2.135c-2.729,0-5.354,2.7-5.354,8.971c0,5.834,2.115,9.61,5.104,9.61
	c1.857,0,2.896-0.968,3.439-2.206v1.854h2.848c-0.037-1.021,0-2.646,0-3.849v-21.22L582.327,204.884L582.327,204.884z
	 M579.759,214.124c1.354,0,2.406,1.61,2.553,3.435c0.037,0.398,0,0.846,0,1.209v5.198c0,0-0.027,0.668-0.143,0.996
	c-0.619,2.552-1.75,3.006-2.625,3.006c-2.041,0-2.955-3.56-2.955-7.276C576.589,217.154,577.427,214.124,579.759,214.124z"/>
<path d="M196.672,44.119c-1.245,0-2.278,1.033-2.278,2.278v43.288c0,1.245,1.033,2.278,2.278,2.278h43.288
	c1.245,0,2.278-1.033,2.278-2.278V46.397c0-1.245-1.033-2.278-2.278-2.278H196.672z M196.672,46.397h43.288v43.288h-43.288V46.397z
	 M211.009,55.51c-1.64,0-2.953,0.182-4.083,0.474l-0.002,24.587h2.808V70.125c0.401,0.036,0.766,0.036,1.239,0.036
	c2.188,0,4.484-0.91,5.796-2.732c0.949-1.239,1.493-2.771,1.493-5.03c0-2.149-0.619-3.938-1.784-5.104
	C215.2,56.055,213.268,55.51,211.009,55.51z M211.454,57.379c3.134,0,4.154,2.257,4.154,4.772c0,3.463-1.859,5.287-4.592,5.287
	c-0.474,0-0.802-0.036-1.13-0.071v-9.805C210.25,57.451,210.798,57.379,211.454,57.379z M225.967,62.345
	c-2.838,0-5.03,2.015-5.03,4.906c0,2.013,1.283,3.55,3.666,5.05c1.853,1.171,2.343,2.124,2.343,3.478
	c0,1.573-1.057,2.561-2.683,2.561c-1.174,0-2.308-0.512-2.95-0.915l-0.719,2.121c0.794,0.622,2.27,1.025,3.593,1.025
	c3.026,0,5.521-1.72,5.521-5.271c0-2.452-1.663-4.1-3.778-5.418c-1.815-1.17-2.27-1.866-2.27-3.037c0-1.17,0.793-2.267,2.343-2.267
	c0.984,0,1.741,0.33,2.459,0.806l0.757-2.125C228.461,62.784,227.405,62.345,225.967,62.345z"/>
<path d="M230.873,281.41c-0.698,0-1.278,0.579-1.278,1.277v24.271c0,0.698,0.58,1.278,1.278,1.278h24.271
	c0.698,0,1.277-0.58,1.277-1.278v-24.271c0-0.698-0.58-1.277-1.277-1.277H230.873z M230.873,282.688h24.271v24.271h-24.271V282.688z
	 M239.55,287.797c-0.92,0-1.657,0.104-2.291,0.268v13.785h1.574v-5.854c0.225,0.021,0.429,0.021,0.695,0.021
	c1.226,0,2.514-0.516,3.25-1.531c0.532-0.694,0.837-1.555,0.837-2.82c0-1.204-0.347-2.207-1-2.861
	C241.899,288.104,240.817,287.797,239.55,287.797z M239.8,288.846c1.757,0,2.329,1.266,2.329,2.676c0,1.941-1.043,2.965-2.575,2.965
	c-0.266,0-0.45-0.021-0.634-0.041v-5.492C239.125,288.886,239.432,288.846,239.8,288.846z M249.069,291.471
	c-0.918,0-1.507,0.416-1.833,1.356l-0.08,0.239v-1.438h-1.593v10.22h1.593l0.019-5.906c0-0.35,0.021-0.635,0.062-0.896
	c0.163-1.146,0.834-2.072,1.833-2.072c0.124,0,0.224-0.002,0.327,0.021v-1.497C249.293,291.471,249.191,291.471,249.069,291.471z"/>
<path d="M502.656,236.997l2.345-3.475c0.335-0.495,0.226-1.183-0.271-1.517c-0.5-0.334-1.188-0.186-1.522,0.311l-2.574,3.799
	c-1.79-0.652-3.729-1.016-5.77-1.016s-3.976,0.365-5.765,1.018l-2.577-3.797c-0.249-0.373-0.703-0.521-1.118-0.441
	c-0.14,0.025-0.282,0.051-0.403,0.137c-0.495,0.334-0.604,1.029-0.271,1.524l2.34,3.457c-3.612,1.915-6.312,4.882-7.188,8.882
	h29.975C508.968,241.879,506.271,238.912,502.656,236.997z M488.891,243.781c-0.903,0-1.628-0.725-1.628-1.628
	c0-0.897,0.725-1.627,1.628-1.627c0.897,0,1.628,0.729,1.628,1.627C490.519,243.055,489.789,243.781,488.891,243.781z
	 M500.826,243.781c-0.897,0-1.631-0.725-1.631-1.628c0-0.897,0.729-1.627,1.631-1.627c0.898,0,1.628,0.729,1.628,1.627
	C502.453,243.055,501.729,243.781,500.826,243.781z"/>
<path d="M465.696,178.146c-0.387,0.866-0.577,1.253-1.076,2.017c-0.704,1.068-1.688,2.401-2.913,2.408
	c-1.088,0.011-1.369-0.708-2.852-0.696c-1.478,0.006-1.786,0.709-2.878,0.7c-1.222-0.011-2.158-1.212-2.854-2.277
	c-1.963-2.989-2.169-6.494-0.956-8.356c0.856-1.321,2.216-2.098,3.491-2.098c1.296,0,2.118,0.711,3.188,0.711
	c1.041,0,1.679-0.713,3.178-0.713c1.133,0,2.329,0.617,3.186,1.686C462.402,173.065,462.859,177.075,465.696,178.146z
	 M460.877,168.646c0.546-0.698,0.959-1.688,0.811-2.695c-0.893,0.06-1.93,0.629-2.538,1.364c-0.552,0.67-1.009,1.669-0.83,2.633
	C459.287,169.979,460.291,169.4,460.877,168.646z"/>
<path d="M42.602,17.918c-14.457,0-26.2,11.744-26.2,26.2s11.744,26.2,26.2,26.2s26.201-11.744,26.201-26.2
	S57.058,17.918,42.602,17.918z M42.602,20.197c9.1,0,17.003,5.063,21.048,12.53H42.602c-0.043,0-0.086,0.002-0.129,0.007
	c-5.864,0.066-10.68,4.59-11.209,10.335L23.276,30.05C27.624,24.085,34.645,20.197,42.602,20.197z M21.896,32.16l10.996,17.917
	c0.038,0.064,0.082,0.125,0.131,0.181c0.001,0.001,0.001,0.003,0.002,0.004c2.029,3.15,5.56,5.249,9.576,5.249
	c1.61,0,3.14-0.34,4.53-0.945L39.549,67.84C27.77,66.343,18.68,56.309,18.68,44.119C18.68,39.755,19.861,35.679,21.896,32.16z
	 M42.602,35.005c5.047,0,9.113,4.066,9.113,9.113c0,1.618-0.421,3.135-1.157,4.45c-0.001,0.001-0.001,0.001-0.002,0.002
	c-0.014,0.021-0.028,0.044-0.04,0.066c-1.567,2.746-4.515,4.595-7.914,4.595c-5.046,0-9.113-4.066-9.113-9.113
	C33.489,39.071,37.555,35.005,42.602,35.005z M49.405,35.005h15.321c1.156,2.809,1.798,5.885,1.798,9.113
	c0,13.226-10.697,23.922-23.922,23.922c-0.18,0-0.357-0.009-0.536-0.013l10.428-18.26c0.025-0.044,0.048-0.088,0.067-0.134
	c0.91-1.636,1.433-3.516,1.433-5.516C53.993,40.392,52.183,37.085,49.405,35.005z"/>
<path d="M367.934,152.743l-16.045-16.044c-0.685-0.684-1.576-1.025-2.477-1.025s-1.794,0.342-2.477,1.025l-3.174,3.173l3.93,3.927
	c1.306-0.767,3.004-0.601,4.119,0.517c1.117,1.119,1.279,2.818,0.519,4.119l3.856,3.86c1.308-0.766,3.006-0.6,4.121,0.518
	c1.326,1.328,1.326,3.479,0,4.806c-1.326,1.328-3.479,1.328-4.807,0c-1.119-1.118-1.285-2.818-0.52-4.122l-3.859-3.86
	c-0.275,0.163-0.562,0.282-0.865,0.358v10.438c1.465,0.378,2.549,1.696,2.549,3.279c0,1.878-1.521,3.398-3.396,3.398
	c-1.88,0-3.397-1.52-3.397-3.398c0-1.583,1.086-2.901,2.549-3.279v-10.438c-0.563-0.146-1.104-0.428-1.553-0.874
	c-1.119-1.118-1.281-2.817-0.518-4.118l-3.93-3.93l-11.672,11.669c-1.365,1.364-1.365,3.581,0,4.945l16.047,16.044
	c0.68,0.683,1.574,1.025,2.474,1.025c0.896,0,1.792-0.342,2.474-1.025l16.045-16.044
	C369.301,156.324,369.301,154.107,367.934,152.743z"/>
<path d="M379.351,60.55c-0.076,0.011-0.146,0.034-0.224,0.067c-0.61,0.304-1.308,1.205-1.44,1.383
	c-0.008,0.011-0.018,0.022-0.021,0.034c-0.688,1.03-1.058,2.234-1.065,3.489c-0.012,0.94,0.174,1.873,0.547,2.771
	c0.869,2.084,2.672,3.809,4.813,4.616c0.072,0.025,0.146,0.05,0.271,0.094c0.015,0.006,0.117,0.039,0.133,0.042l0.078,0.027
	c0.109,0.037,0.229,0.073,0.338,0.095c0.562,0.114,1.115,0.178,1.636,0.194c0.09,0,0.178,0.003,0.271,0.003
	c3.9,0,5.418-2.754,5.922-3.673c0.049-0.089,0.086-0.161,0.119-0.206c0-0.003,0-0.003,0.002-0.005
	c0.221-0.325,0.137-0.768-0.188-0.99c-0.322-0.22-0.769-0.137-0.987,0.189h-0.003c-1.04,1.533-2.819,1.998-5.288,1.386
	c-0.185-0.044-0.386-0.114-0.562-0.181c-0.231-0.083-0.467-0.181-0.684-0.286c-0.437-0.214-0.842-0.47-1.205-0.754
	c-2.176-1.683-3.021-5.187-1.752-7.209c0.17-0.27,0.141-0.621-0.074-0.857C379.812,60.6,379.578,60.52,379.351,60.55z
	 M373.038,61.97c-0.161-0.003-0.326,0.05-0.458,0.161c-1.077,0.876-2.179,2.312-2.228,2.371c-0.004,0.011-0.015,0.02-0.021,0.031
	c-1.947,2.835-2.096,6.87-0.373,10.278c0.271,0.54,0.576,1.055,0.9,1.528l0.099,0.139c0.274,0.403,0.584,0.86,0.979,1.215
	c0.138,0.156,0.279,0.307,0.43,0.451l0.068,0.072l0.06,0.059c0.146,0.142,0.297,0.286,0.454,0.426h0.002
	c0.011,0.017,0.027,0.028,0.042,0.042c0.176,0.156,0.354,0.303,0.59,0.49l0.063,0.047c0.185,0.148,0.369,0.287,0.562,0.423
	c0.021,0.014,0.039,0.028,0.06,0.042c0.065,0.044,0.135,0.086,0.199,0.134l0.066,0.044l0.076,0.05
	c0.144,0.096,0.281,0.181,0.479,0.296c0.127,0.078,0.266,0.155,0.354,0.2c0.039,0.022,0.082,0.044,0.182,0.097l0.217,0.114
	c0.016,0.005,0.062,0.028,0.072,0.033c0.146,0.073,0.289,0.143,0.438,0.209l0.228,0.1c0.146,0.064,0.297,0.126,0.479,0.195
	l0.084,0.031c0.006,0.005,0.071,0.03,0.078,0.033c0.135,0.048,0.271,0.095,0.404,0.139l0.312,0.103
	c0.153,0.053,0.336,0.115,0.531,0.147c0.975,0.161,1.913,0.245,2.811,0.245c0.104,0,0.213-0.003,0.312-0.003
	c7.863-0.172,9.907-6.853,9.931-6.92c0.1-0.336-0.062-0.695-0.379-0.846c-0.316-0.15-0.693-0.044-0.896,0.245
	c-1.991,2.91-5.762,4.14-9.6,3.127c-0.18-0.045-0.352-0.095-0.562-0.165c-0.035-0.011-0.063-0.022-0.125-0.044
	c-0.125-0.039-0.248-0.081-0.39-0.134l-0.19-0.075c-0.114-0.044-0.229-0.089-0.366-0.15l-0.094-0.042
	c-0.169-0.073-0.334-0.153-0.48-0.226l-0.401-0.211c-0.097-0.044-0.177-0.094-0.302-0.17l-0.066-0.039l-0.066-0.042
	c-0.104-0.061-0.205-0.125-0.304-0.192l-0.063-0.042c-0.004-0.003-0.062-0.042-0.064-0.047c-0.083-0.053-0.164-0.106-0.242-0.156
	c-0.172-0.123-0.342-0.251-0.537-0.406l-0.078-0.064c-1.836-1.466-3.191-3.425-3.832-5.526c-0.595-1.928-0.15-4.452,1.179-6.75
	c0.175-0.297,0.108-0.676-0.154-0.899C373.36,62.028,373.2,61.97,373.038,61.97z M365.2,64.105c-0.17,0-0.342,0.062-0.479,0.184
	c-1.361,1.221-2.384,2.805-2.49,2.985c-2.91,4.238-2.353,10.824-0.354,14.851c0.04,0.083,0.081,0.164,0.123,0.244l0.024,0.044
	c0.037,0.082,0.078,0.165,0.095,0.182c0.021,0.052,0.058,0.111,0.065,0.127c0.031,0.07,0.066,0.131,0.129,0.236l0.229,0.393
	c0.033,0.053,0.064,0.108,0.078,0.128c0.044,0.072,0.092,0.147,0.14,0.223l0.11,0.178c0.031,0.053,0.064,0.1,0.089,0.128
	c0.11,0.172,0.226,0.345,0.347,0.509c0.006,0.008,0.012,0.014,0.021,0.02l0.045,0.061c0.103,0.145,0.202,0.284,0.295,0.398
	l0.403,0.514c0.009,0.006,0.053,0.059,0.056,0.065l0.062,0.066c0.123,0.15,0.252,0.3,0.385,0.445
	c0.021,0.021,0.037,0.042,0.06,0.062c0.125,0.137,0.252,0.273,0.388,0.415l0.129,0.122c0.104,0.111,0.211,0.22,0.319,0.323
	c0,0.003,0.056,0.054,0.056,0.054l0.108,0.103c0.136,0.128,0.271,0.256,0.378,0.345c0.008,0.008,0.105,0.095,0.114,0.101
	c0.131,0.116,0.261,0.228,0.396,0.336l0.684,0.54c0.111,0.084,0.229,0.167,0.361,0.265c0.045,0.034,0.092,0.066,0.143,0.097
	c0.021,0.017,0.042,0.034,0.057,0.042l0.514,0.342c0.188,0.123,0.373,0.236,0.604,0.373l0.123,0.07
	c0.145,0.083,0.286,0.167,0.423,0.239c0.081,0.044,0.161,0.083,0.229,0.12c0.1,0.053,0.203,0.111,0.365,0.189
	c0.014,0.009,0.127,0.063,0.145,0.07c0.158,0.081,0.322,0.155,0.529,0.247c0,0.003,0.063,0.034,0.063,0.034
	c0.188,0.081,0.373,0.159,0.615,0.256c0.039,0.017,0.075,0.03,0.086,0.034c0.173,0.066,0.354,0.133,0.501,0.186
	c0.018,0.005,0.089,0.036,0.104,0.042c0.195,0.066,0.396,0.131,0.646,0.208c0.042,0.014,0.086,0.027,0.092,0.027l0.145,0.045
	c0.172,0.052,0.348,0.108,0.533,0.144c1.32,0.242,2.614,0.368,3.842,0.368h0.004c10.201,0,13.451-8.211,13.484-8.295
	c0.125-0.331-0.014-0.704-0.322-0.875c-0.309-0.17-0.692-0.089-0.912,0.191c-2.616,3.448-7.561,4.728-13.211,3.428
	c-0.139-0.033-0.272-0.072-0.411-0.115l-0.267-0.081c-0.185-0.055-0.361-0.117-0.537-0.178c-0.004,0-0.084-0.03-0.084-0.03
	c-0.156-0.053-0.312-0.114-0.446-0.167l-0.155-0.062c-0.172-0.07-0.348-0.142-0.514-0.217l-0.098-0.042
	c-0.148-0.069-0.299-0.137-0.439-0.209c-0.012-0.006-0.125-0.061-0.137-0.064c-0.104-0.05-0.2-0.103-0.328-0.173l-0.582-0.312
	c-0.062-0.039-0.119-0.075-0.178-0.105c-0.179-0.109-0.354-0.217-0.535-0.332c-0.043-0.024-0.078-0.053-0.146-0.1
	c-0.123-0.078-0.24-0.158-0.417-0.281l-0.067-0.05c-0.119-0.083-0.236-0.172-0.332-0.244c-0.062-0.045-0.123-0.095-0.227-0.17
	c-0.089-0.07-0.18-0.137-0.266-0.204l-0.151-0.127c-0.131-0.105-0.253-0.217-0.382-0.326c-0.02-0.017-0.031-0.028-0.053-0.042
	c-0.145-0.13-0.284-0.261-0.459-0.426l-0.504-0.5c-0.123-0.125-0.244-0.253-0.385-0.406c-0.129-0.142-0.25-0.284-0.414-0.478
	l-0.303-0.368c-0.036-0.053-0.072-0.106-0.123-0.161c-0.104-0.139-0.206-0.276-0.311-0.42c-2.771-3.818-3.493-11.787-1.336-14.706
	c0.219-0.292,0.18-0.704-0.094-0.951C365.542,64.167,365.37,64.105,365.2,64.105z"/>
<path d="M143.076,308.237c-0.269,0-0.514,0.215-0.514,0.514v9.393l-2.129-1.236c-0.133-0.078-0.284-0.117-0.434-0.117
	s-0.3,0.039-0.434,0.117l-5.116,2.979c-0.266,0.153-0.43,0.438-0.43,0.744v5.973c0,0.312,0.164,0.598,0.43,0.744l5.116,2.984
	c0.134,0.079,0.284,0.117,0.434,0.117s0.3-0.038,0.434-0.117l5.116-2.984c0.267-0.146,0.431-0.438,0.431-0.744v-2.98v-2.986v-10.289
	c0-0.305-0.163-0.584-0.424-0.733l-2.226-1.298C143.246,308.26,143.161,308.237,143.076,308.237z M126.329,316.784
	c-0.15,0-0.3,0.039-0.434,0.117l-5.116,2.979c-0.266,0.153-0.43,0.438-0.43,0.744v5.973c0,0.312,0.164,0.598,0.43,0.744l5.116,2.984
	c0.269,0.156,0.6,0.156,0.868,0l5.116-2.984c0.267-0.146,0.431-0.438,0.431-0.744v-5.973c0-0.309-0.164-0.591-0.431-0.744
	l-5.116-2.979C126.628,316.823,126.479,316.784,126.329,316.784z M153.668,316.784c-0.15,0-0.301,0.039-0.434,0.117l-5.116,2.979
	c-0.267,0.153-0.431,0.438-0.431,0.744v5.973c0,0.312,0.164,0.598,0.431,0.744l4.963,3.001c0.266,0.163,0.601,0.163,0.871,0.007
	l2.439-1.418c0.252-0.146,0.255-0.513,0-0.655l-5.287-3.114v-3.066l2.563-1.492l2.563,1.492v2.136c0,0.285,0.24,0.329,0.4,0.233
	c0.646-0.379,2.593-1.508,2.593-1.508c0.261-0.152,0.424-0.438,0.424-0.738v-1.588c0-0.309-0.164-0.591-0.431-0.744l-5.116-2.979
	C153.967,316.823,153.818,316.784,153.668,316.784z M112.659,316.788c-0.15,0-0.301,0.038-0.434,0.117l-5.116,2.979
	c-0.266,0.154-0.43,0.439-0.43,0.747v7.626c0,0.373,0.403,0.604,0.724,0.417l2.27-1.321c0.261-0.148,0.424-0.434,0.424-0.732V322.1
	l2.563-1.488l2.563,1.488v4.521c0,0.305,0.163,0.584,0.424,0.732l2.27,1.321c0.321,0.188,0.724-0.044,0.724-0.417v-7.626
	c0-0.308-0.164-0.593-0.431-0.747l-5.116-2.979C112.959,316.826,112.809,316.788,112.659,316.788z M139.999,320.603l2.563,1.495
	v1.521v1.519l-2.563,1.495l-2.563-1.495V322.1L139.999,320.603z M153.668,321.914l-1.465,0.854v1.705l1.465,0.854l1.465-0.854
	v-1.705L153.668,321.914z M133.003,328.739c-0.176,0-0.354,0.043-0.507,0.13l-4.806,2.771c-0.316,0.182-0.507,0.521-0.507,0.875
	v5.553c0,0.354,0.2,0.688,0.507,0.874l1.265,0.721c0.606,0.3,0.83,0.3,1.104,0.3c0.906,0,1.422-0.541,1.422-1.498v-5.479
	c0-0.083-0.065-0.146-0.14-0.146h-0.607c-0.084,0-0.144,0.068-0.144,0.146v5.479c0,0.415-0.439,0.842-1.155,0.484l-1.315-0.758
	c-0.043-0.025-0.073-0.077-0.073-0.127v-5.553c0-0.049,0.024-0.104,0.073-0.133l4.806-2.771c0.051-0.025,0.109-0.025,0.15,0
	l4.809,2.771c0.05,0.025,0.074,0.075,0.074,0.133v5.553c0,0.059-0.032,0.104-0.074,0.134l-4.809,2.774
	c-0.043,0.025-0.109,0.025-0.15,0l-1.228-0.729c-0.032-0.021-0.084-0.026-0.117-0.01c-0.34,0.194-0.408,0.226-0.724,0.333
	c-0.084,0.021-0.198,0.076,0.043,0.211l1.595,0.941c0.159,0.084,0.333,0.141,0.507,0.141c0.183,0,0.36-0.057,0.5-0.146l4.806-2.774
	c0.316-0.181,0.507-0.521,0.507-0.874v-5.552c0-0.354-0.2-0.688-0.507-0.875l-4.806-2.771
	C133.354,328.782,133.179,328.739,133.003,328.739z M140.499,331.299c-0.491,0-0.921,0.396-0.921,0.921
	c0,0.508,0.414,0.925,0.921,0.925s0.921-0.417,0.921-0.925C141.42,331.695,140.998,331.29,140.499,331.299z M140.489,331.446
	c0.434,0,0.785,0.342,0.785,0.771c0,0.424-0.352,0.774-0.785,0.785c-0.425,0-0.771-0.353-0.771-0.785
	C139.718,331.788,140.065,331.446,140.489,331.446z M140.152,331.696v1.037h0.197v-0.414h0.184c0.075,0,0.094,0.027,0.11,0.091
	c0,0.009,0.031,0.277,0.04,0.327h0.213c-0.024-0.05-0.041-0.191-0.05-0.277c-0.024-0.133-0.032-0.225-0.174-0.233
	c0.075-0.021,0.2-0.062,0.2-0.257c0-0.271-0.239-0.271-0.364-0.271L140.152,331.696L140.152,331.696z M140.349,331.862h0.167
	c0.051,0,0.15-0.001,0.15,0.141c0,0.059-0.026,0.152-0.16,0.15h-0.157V331.862z M134.292,332.71c-1.372,0-2.186,0.586-2.186,1.549
	c0,1.062,0.815,1.338,2.129,1.479c1.572,0.15,1.695,0.383,1.695,0.688c0,0.54-0.433,0.769-1.448,0.769
	c-1.273,0-1.553-0.314-1.646-0.946c-0.009-0.067-0.068-0.117-0.144-0.117h-0.624c-0.075,0-0.14,0.062-0.14,0.145
	c0,0.812,0.439,1.771,2.543,1.771c1.543-0.002,2.417-0.6,2.417-1.648c0-1.038-0.7-1.312-2.18-1.516c-1.497-0.2-1.645-0.3-1.645-0.65
	c0-0.288,0.123-0.671,1.228-0.671c0.989,0,1.358,0.222,1.508,0.883c0.017,0.064,0.063,0.105,0.13,0.105h0.624
	c0.041,0,0.076-0.017,0.1-0.041c0.026-0.031,0.042-0.062,0.033-0.104C136.589,333.245,135.831,332.71,134.292,332.71z"/>
<path d="M346.295,282.52c-0.428-0.01-0.801,0.154-0.992,0.627c-0.328,0.795,0.486,1.57,0.778,1.979
	c0.203,0.281,0.466,0.601,0.612,0.914c0.096,0.211,0.109,0.42,0.188,0.644c0.202,0.545,0.526,1.164,0.785,1.67
	c0.136,0.256,0.277,0.521,0.443,0.752c0.104,0.142,0.275,0.203,0.309,0.416c-0.171,0.24-0.186,0.612-0.273,0.922
	c-0.438,1.371-0.271,3.076,0.355,4.089c0.195,0.312,0.654,0.979,1.281,0.728c0.548-0.224,0.427-0.919,0.583-1.531
	c0.034-0.138,0.02-0.238,0.086-0.332v0.026c0.164,0.334,0.331,0.669,0.499,1c0.373,0.603,1.027,1.224,1.588,1.646
	c0.288,0.219,0.521,0.599,0.895,0.727v-0.025h-0.027c-0.072-0.112-0.188-0.158-0.278-0.25c-0.217-0.215-0.459-0.479-0.638-0.729
	c-0.508-0.688-0.957-1.439-1.363-2.229c-0.193-0.373-0.366-0.787-0.529-1.168c-0.062-0.146-0.062-0.369-0.195-0.446
	c-0.183,0.28-0.44,0.508-0.584,0.837c-0.221,0.525-0.252,1.174-0.334,1.839c-0.051,0.019-0.024,0.003-0.053,0.024
	c-0.391-0.098-0.527-0.493-0.672-0.836c-0.361-0.864-0.435-2.264-0.109-3.254c0.082-0.263,0.457-1.071,0.312-1.312
	c-0.069-0.239-0.312-0.374-0.442-0.56c-0.166-0.226-0.328-0.521-0.441-0.775c-0.301-0.68-0.582-1.46-0.896-2.146
	c-0.147-0.328-0.402-0.656-0.611-0.947c-0.229-0.317-0.484-0.557-0.67-0.943c-0.062-0.137-0.146-0.354-0.055-0.499
	c0.028-0.097,0.071-0.136,0.167-0.166c0.16-0.125,0.608,0.039,0.78,0.106c0.443,0.188,0.818,0.361,1.195,0.611
	c0.182,0.12,0.357,0.354,0.584,0.42h0.248c0.396,0.09,0.834,0.022,1.191,0.143c0.648,0.193,1.229,0.503,1.752,0.832
	c1.605,1.013,2.924,2.451,3.812,4.174c0.146,0.273,0.21,0.545,0.338,0.836c0.253,0.592,0.572,1.204,0.833,1.778
	c0.254,0.579,0.503,1.159,0.858,1.643c0.188,0.255,0.922,0.396,1.252,0.531c0.23,0.101,0.615,0.201,0.834,0.334
	c0.427,0.254,0.828,0.558,1.229,0.837c0.199,0.141,0.809,0.438,0.836,0.691c-0.979-0.022-1.729,0.062-2.357,0.334
	c-0.188,0.08-0.479,0.08-0.504,0.31c0.098,0.104,0.11,0.261,0.188,0.392c0.147,0.242,0.409,0.573,0.646,0.752
	c0.252,0.188,0.51,0.391,0.774,0.56c0.479,0.288,1.015,0.454,1.479,0.747c0.271,0.177,0.545,0.395,0.809,0.584
	c0.132,0.102,0.217,0.248,0.389,0.312v-0.031c-0.09-0.111-0.109-0.271-0.191-0.389l-0.362-0.367
	c-0.354-0.467-0.806-0.879-1.276-1.222c-0.383-0.272-1.229-0.646-1.391-1.086l-0.027-0.028c0.271-0.026,0.584-0.127,0.832-0.192
	c0.424-0.108,0.791-0.082,1.227-0.19c0.191-0.06,0.393-0.113,0.588-0.166v-0.113c-0.219-0.221-0.373-0.521-0.612-0.725
	c-0.622-0.529-1.304-1.062-2.005-1.503c-0.389-0.243-0.868-0.403-1.277-0.61c-0.139-0.069-0.38-0.104-0.475-0.226
	c-0.217-0.272-0.334-0.623-0.5-0.942c-0.352-0.672-0.689-1.403-1.002-2.112c-0.209-0.479-0.35-0.957-0.611-1.394
	c-1.264-2.076-2.623-3.332-4.73-4.562c-0.443-0.266-0.982-0.363-1.557-0.498c-0.311-0.021-0.611-0.039-0.922-0.061
	c-0.188-0.076-0.381-0.307-0.557-0.418C347.868,283.008,347.007,282.531,346.295,282.52z M349.311,285.539
	c-0.203-0.004-0.351,0.025-0.502,0.057v0.029h0.026c0.099,0.199,0.271,0.327,0.394,0.498c0.092,0.195,0.186,0.393,0.272,0.588
	l0.028-0.029c0.172-0.121,0.253-0.312,0.253-0.611c-0.071-0.066-0.081-0.158-0.14-0.25
	C349.562,285.703,349.409,285.639,349.311,285.539z M319.591,297.1c-0.272,0.01-0.572,0.062-0.896,0.166
	c-0.54,0.164-0.808,0.488-0.808,1.146v6.893h1.825v-6.726l2.531,5.75c0.313,0.716,0.739,0.972,1.577,0.972
	c0.84,0,1.248-0.256,1.562-0.972l2.531-5.604v6.58h1.823v-6.894c0-0.658-0.264-0.981-0.809-1.146
	c-1.302-0.41-2.174-0.062-2.562,0.825l-2.602,5.851l-2.518-5.851C320.973,297.43,320.403,297.066,319.591,297.1z M341.811,297.102
	c-0.722,0-2.959,0.086-2.959,1.823v1.125c0,0.798,0.7,1.449,2.225,1.609c0.172,0.011,0.343,0.024,0.514,0.024
	c0,0,1.771-0.035,1.822-0.024c1.021,0,0.906,0.796,0.906,0.911v0.912c0,0.123-0.022,0.91-0.922,0.91h-4.545v0.912h4.562
	c0.6,0,1.179-0.125,1.643-0.349c0.771-0.354,1.086-0.828,1.086-1.454V302.2c0-1.396-1.738-1.456-2.73-1.456h-1.822
	c-0.716,0-0.822-0.438-0.91-0.912v-0.911c0.086-0.36,0.244-0.854,0.883-0.907h4.59v-0.912H341.811L341.811,297.102z
	 M348.857,297.102c-1.35,0.188-1.819,0.855-1.819,1.823v4.558c0,0.892,0.496,1.42,1.515,1.697c0.342,0.096,0.65,0.135,0.942,0.135
	l2.028-0.01h1.188l1.02,0.91h2.051l-1.409-1.27c0.662-0.273,0.869-0.694,0.869-1.482v-4.538c0-0.968-0.632-1.638-1.976-1.823
	H348.857L348.857,297.102z M356.166,297.102v6.342c0,1.104,0.624,1.725,2.271,1.85c0.147,0.006,0.31,0.021,0.463,0.021h4.557V304.4
	h-4.211c-0.939,0-1.257-0.396-1.257-0.957v-6.334h-1.823V297.102L356.166,297.102z M349.943,298.014h2.346
	c0.62,0,1.036,0.498,1.129,0.911c0,0,0.016,4.243,0.016,4.558c0,0.312-0.175,0.455-0.175,0.455l-0.495-0.455H350.7l1.015,0.91h-1.77
	c-0.635,0-0.989-0.47-1.082-0.91v-4.465C348.861,298.533,349.23,298.014,349.943,298.014z M330.648,299.836
	c0.035,0.035,0,3.885,0,3.959c0.015,0.797,1.021,1.495,2.604,1.51h2.857v0.062c0,0.17,0.123,0.739-0.91,0.85
	c-0.016,0-4.547,0-4.561,0v0.912h4.752c0.809-0.021,2.551-0.207,2.539-1.604c0-0.023,0.006-5.688,0-5.688h-1.818v4.56
	c-0.029,0-2.262,0.006-2.706,0c-0.884-0.017-0.954-0.519-0.938-0.707v-3.853L330.648,299.836L330.648,299.836z"/>
<path d="M430.182,200.236c-0.213-0.234-0.521-0.369-0.841-0.369h-44.507c-0.32,0-0.627,0.135-0.843,0.369
	c-0.218,0.236-0.323,0.553-0.293,0.874l4.011,44.912c0.039,0.475,0.369,0.861,0.821,0.996l18.239,5.207
	c0.099,0.029,0.201,0.045,0.312,0.045s0.209-0.016,0.312-0.045l18.257-5.207c0.449-0.135,0.773-0.521,0.818-0.996l4.005-44.912
	C430.507,200.789,430.4,200.473,430.182,200.236z M420.584,215.723h-21.431l0.513,5.799h20.401l-1.53,17.141l-11.459,3.463
	l-0.11-0.035l-11.323-3.436l-0.619-6.979h5.553l0.24,2.711l6.332,1.325l6.217-1.325l0.663-7.334h-19.421l-1.508-16.861h27.979
	L420.584,215.723z"/>
<path d="M618.773,86.763c-0.894-0.03-1.817,0.125-2.75,0.427c-1.864,0.604-3.817,1.782-5.822,3.413
	c-0.785,0.639-1.578,1.37-2.374,2.146c-0.777-0.756-1.554-1.467-2.322-2.092c-2.004-1.63-3.952-2.808-5.812-3.411
	c-1.86-0.603-3.718-0.622-5.231,0.256s-2.429,2.489-2.836,4.401c-0.408,1.912-0.363,4.189,0.046,6.739
	c0.143,0.886,0.345,1.814,0.576,2.761c-0.868,0.263-1.712,0.54-2.494,0.846c-2.36,0.922-4.312,2.024-5.735,3.337
	c-1.422,1.313-2.341,2.905-2.341,4.655c0,1.748,0.919,3.339,2.341,4.652c1.423,1.312,3.375,2.417,5.735,3.339
	c0.837,0.326,1.742,0.621,2.677,0.899c-0.336,1.256-0.604,2.475-0.794,3.631c-0.41,2.552-0.453,4.829-0.045,6.746
	c0.409,1.917,1.318,3.536,2.846,4.419c1.527,0.882,3.393,0.859,5.251,0.256c1.864-0.604,3.815-1.78,5.82-3.411
	c0.779-0.633,1.566-1.356,2.354-2.123c0.792,0.771,1.583,1.498,2.358,2.134c2.004,1.63,3.954,2.806,5.814,3.409
	c1.854,0.603,3.711,0.621,5.229-0.256c1.521-0.878,2.433-2.489,2.835-4.401c0.407-1.912,0.362-4.188-0.047-6.737
	c-0.187-1.159-0.459-2.381-0.797-3.642c0.966-0.285,1.9-0.588,2.764-0.924c2.358-0.922,4.312-2.026,5.733-3.339
	s2.341-2.904,2.341-4.652c0-1.75-0.919-3.343-2.341-4.655s-3.375-2.415-5.733-3.337c-0.796-0.311-1.646-0.591-2.528-0.856
	c0.229-0.952,0.438-1.889,0.583-2.779c0.408-2.552,0.453-4.831,0.044-6.748c-0.408-1.917-1.32-3.535-2.854-4.417
	C620.509,87.007,619.662,86.792,618.773,86.763z M618.669,89.081c0.558,0.016,1.033,0.148,1.439,0.383
	c0.812,0.47,1.415,1.383,1.73,2.888c0.32,1.504,0.312,3.536-0.063,5.894c-0.131,0.807-0.318,1.662-0.532,2.539
	c-2.33-0.561-4.883-0.978-7.604-1.222c-1.36-1.893-2.77-3.616-4.185-5.146c0.748-0.73,1.492-1.414,2.218-2.004
	c1.854-1.507,3.605-2.532,5.068-3.006C617.472,89.169,618.112,89.066,618.669,89.081z M597.052,89.088
	c0.562-0.016,1.202,0.087,1.938,0.325c1.468,0.476,3.225,1.501,5.078,3.009c0.711,0.578,1.438,1.248,2.171,1.962
	c-1.432,1.542-2.841,3.28-4.216,5.19c-2.716,0.249-5.259,0.668-7.571,1.23c-0.213-0.872-0.4-1.723-0.53-2.525
	c-0.379-2.359-0.388-4.392-0.062-5.9c0.316-1.508,0.929-2.43,1.75-2.903C596.012,89.238,596.491,89.104,597.052,89.088z
	 M607.863,96.056c0.928,1.01,1.854,2.115,2.771,3.305c-0.898-0.038-1.814-0.061-2.75-0.061c-0.942,0-1.881,0.023-2.804,0.062
	C606.008,98.172,606.936,97.067,607.863,96.056z M607.89,101.601c1.555,0,3.062,0.063,4.527,0.171
	c1.011,1.451,1.998,2.992,2.939,4.621c0.82,1.433,1.569,2.862,2.256,4.274c-0.688,1.431-1.449,2.88-2.287,4.332
	c-0.737,1.278-1.509,2.492-2.292,3.662c-1.658,0.139-3.378,0.216-5.146,0.216c-1.809,0-3.562-0.082-5.262-0.227
	c-0.771-1.154-1.527-2.35-2.254-3.606c-0.837-1.449-1.593-2.896-2.28-4.323c0.689-1.437,1.45-2.891,2.291-4.348
	c0.938-1.622,1.921-3.152,2.926-4.597C604.795,101.667,606.322,101.601,607.89,101.601z M615.35,102.057
	c1.878,0.233,3.646,0.56,5.282,0.95c-0.487,1.596-1.087,3.263-1.812,4.983c-0.478-0.91-0.961-1.822-1.488-2.736
	C616.69,104.146,616.023,103.089,615.35,102.057z M600.308,102.075c-0.654,1.013-1.31,2.05-1.937,3.135
	c-0.535,0.926-1.033,1.852-1.511,2.772c-0.726-1.71-1.316-3.368-1.806-4.955C596.689,102.635,598.442,102.312,600.308,102.075z
	 M622.886,103.613c0.812,0.244,1.587,0.498,2.309,0.778c2.176,0.85,3.896,1.855,5.013,2.886c1.115,1.029,1.6,2.012,1.6,2.964
	c0,0.952-0.479,1.934-1.6,2.963c-1.116,1.029-2.837,2.036-5.013,2.886c-0.8,0.311-1.675,0.592-2.576,0.859
	c-0.647-2.004-1.479-4.094-2.459-6.228C621.285,108.271,622.198,105.882,622.886,103.613z M592.855,103.624
	c0.68,2.247,1.576,4.612,2.691,7.037c-0.989,2.146-1.816,4.249-2.472,6.264c-0.877-0.261-1.724-0.534-2.49-0.835
	c-2.176-0.85-3.896-1.856-5.013-2.886c-1.117-1.03-1.604-2.011-1.604-2.963c0-0.952,0.483-1.935,1.604-2.964
	c1.116-1.03,2.837-2.036,5.013-2.886C591.295,104.116,592.062,103.865,592.855,103.624z M607.89,105.007
	c-3.132,0-5.689,2.563-5.689,5.696c0,3.131,2.562,5.695,5.689,5.695c3.138,0,5.695-2.564,5.695-5.695
	C613.585,107.571,611.021,105.007,607.89,105.007z M596.888,113.398c0.479,0.925,0.979,1.854,1.521,2.785
	c0.421,0.729,0.851,1.438,1.286,2.134c-1.529-0.213-2.984-0.48-4.354-0.799C595.773,116.188,596.293,114.807,596.888,113.398z
	 M618.848,113.398c0.603,1.412,1.116,2.795,1.559,4.129c-1.37,0.317-2.829,0.585-4.363,0.797c0.44-0.705,0.878-1.423,1.304-2.16
	C617.874,115.239,618.371,114.317,618.848,113.398z M594.683,119.73c2.062,0.488,4.296,0.863,6.666,1.107
	c1.582,2.287,3.229,4.344,4.894,6.141c-0.742,0.724-1.479,1.402-2.196,1.987c-1.852,1.506-3.604,2.528-5.07,3.004
	c-1.463,0.474-2.555,0.411-3.362-0.059c-0.813-0.469-1.413-1.384-1.733-2.888c-0.318-1.504-0.312-3.534,0.065-5.892
	C594.106,122.062,594.363,120.917,594.683,119.73z M621.059,119.739c0.321,1.194,0.58,2.344,0.752,3.42
	c0.386,2.358,0.395,4.392,0.067,5.9c-0.322,1.508-0.924,2.432-1.744,2.905c-0.815,0.474-1.924,0.536-3.392,0.061
	c-1.467-0.477-3.229-1.501-5.077-3.009c-0.724-0.589-1.464-1.273-2.211-2.002c1.67-1.805,3.329-3.87,4.921-6.172
	C616.751,120.599,618.992,120.226,621.059,119.739z M604.321,121.071c1.169,0.063,2.354,0.107,3.562,0.107
	c1.175,0,2.32-0.041,3.453-0.101c-1.158,1.562-2.338,2.981-3.514,4.261C606.655,124.057,605.477,122.634,604.321,121.071z"/>
<path d="M180.537,221.956h-41.771c-1.678,0-3.039,1.362-3.039,3.039v41.767c0,1.678,1.361,3.039,3.039,3.039h41.766
	c1.678,0,3.039-1.361,3.039-3.035v-41.771C183.571,223.318,182.21,221.956,180.537,221.956z M161.927,258.618
	c0,4.553-2.67,6.626-6.568,6.626c-3.524,0-6.065-2.362-7.102-4.557l3.582-2.168c0.689,1.225,1.74,2.168,3.252,2.168
	c1.446,0,2.278-0.565,2.278-2.77V243.6h4.557L161.927,258.618L161.927,258.618z M171.811,265.244c-4.036,0-6.328-2.033-7.605-4.557
	l3.417-2.278c0.93,1.521,1.945,2.978,4.089,2.978c1.802,0,2.746-0.898,2.746-2.146c0-1.486-0.979-2.017-2.959-2.884l-1.086-0.467
	c-3.137-1.336-5.224-3.014-5.224-6.556c0-3.258,2.488-5.735,6.368-5.735c2.763,0,4.748,0.961,6.181,3.479l-3.382,2.176
	c-0.748-1.339-1.549-1.863-2.799-1.863c-1.273,0-2.078,0.812-2.078,1.863c0,1.305,0.805,1.829,2.67,2.641l1.085,0.467
	c3.698,1.58,5.78,3.195,5.78,6.826C179.015,263.1,175.94,265.244,171.811,265.244z"/>
<path d="M503.283,73.959c-2.27,0.012-4.233,0.557-5.879,1.369c-0.604-1.203-1.212-2.26-1.315-3.047
	c-0.117-0.917-0.258-1.465-0.111-2.559c0.146-1.095,0.774-2.645,0.77-2.76c-0.01-0.116-0.146-0.672-1.45-0.684
	c-1.308-0.009-2.429,0.252-2.56,0.598c-0.137,0.345-0.387,1.122-0.541,1.934c-0.229,1.186-2.611,5.417-3.968,7.631
	c-0.44-0.865-0.817-1.625-0.896-2.228c-0.118-0.917-0.259-1.465-0.113-2.56c0.146-1.094,0.775-2.644,0.771-2.759
	c-0.011-0.116-0.146-0.673-1.449-0.683c-1.308-0.009-2.427,0.251-2.562,0.597c-0.132,0.345-0.271,1.153-0.54,1.934
	c-0.271,0.782-3.438,7.84-4.269,9.668c-0.423,0.932-0.79,1.682-1.049,2.192c-0.003-0.001-0.003-0.002-0.003-0.002
	s-0.019,0.034-0.044,0.092c-0.224,0.434-0.354,0.675-0.354,0.675s0,0.003,0.004,0.01c-0.179,0.319-0.361,0.618-0.457,0.618
	c-0.063,0-0.193-0.853,0.026-2.018c0.472-2.449,1.604-6.268,1.593-6.399c-0.007-0.067,0.212-0.731-0.738-1.081
	c-0.925-0.338-1.254,0.227-1.338,0.228c-0.082,0.001-0.145,0.199-0.145,0.199s1.028-4.294-1.964-4.294
	c-1.869,0-4.46,2.045-5.737,3.899c-0.804,0.438-2.527,1.379-4.354,2.385c-0.702,0.386-1.418,0.78-2.104,1.155
	c-0.047-0.05-0.093-0.103-0.141-0.152c-3.628-3.87-10.331-6.607-10.047-11.809c0.104-1.891,0.761-6.872,12.884-12.912
	c9.932-4.948,17.878-3.586,19.254-0.568c1.963,4.311-4.25,12.324-14.562,13.479c-3.933,0.44-5.997-1.082-6.513-1.65
	c-0.542-0.597-0.624-0.624-0.826-0.511c-0.329,0.183-0.12,0.71,0,1.023c0.312,0.801,1.569,2.222,3.729,2.929
	c1.896,0.622,6.509,0.962,12.088-1.195c6.247-2.417,11.127-9.141,9.694-14.76c-1.456-5.716-10.937-7.594-19.903-4.409
	c-5.339,1.896-11.115,4.873-15.271,8.759c-4.938,4.622-5.729,8.643-5.4,10.324c1.152,5.971,9.383,9.86,12.679,12.742
	c-0.162,0.089-0.312,0.173-0.453,0.25c-1.648,0.817-7.926,4.1-9.493,7.57c-1.777,3.934,0.281,6.758,1.646,7.139
	c4.23,1.177,8.576-0.943,10.911-4.423c2.333-3.48,2.048-8.012,0.977-10.082c-0.013-0.026-0.023-0.052-0.042-0.077
	c0.43-0.253,0.862-0.508,1.293-0.763c0.844-0.493,1.669-0.954,2.386-1.344c-0.397,1.099-0.69,2.415-0.849,4.316
	c-0.178,2.234,0.735,5.122,1.935,6.257c0.526,0.5,1.164,0.512,1.563,0.512c1.396,0,2.03-1.159,2.729-2.532
	c0.859-1.682,1.621-3.64,1.621-3.64s-0.958,5.29,1.648,5.29c0.949,0,1.903-1.232,2.33-1.859c0.001,0.007,0.001,0.011,0.001,0.011
	s0.021-0.04,0.072-0.124c0.098-0.15,0.151-0.246,0.151-0.246s0.004-0.01,0.006-0.027c0.385-0.662,1.229-2.173,2.496-4.666
	c1.643-3.219,3.213-7.251,3.213-7.251s0.146,0.987,0.629,2.615c0.279,0.959,0.881,2.021,1.354,3.037
	c-0.38,0.527-0.612,0.831-0.612,0.831s0.002,0.004,0.011,0.016c-0.31,0.404-0.646,0.839-1.005,1.264
	c-1.298,1.543-2.838,3.303-3.044,3.812c-0.241,0.599-0.188,1.039,0.284,1.394c0.342,0.258,0.955,0.298,1.59,0.255
	c1.164-0.077,1.981-0.368,2.392-0.542c0.63-0.222,1.359-0.572,2.051-1.079c1.271-0.934,2.034-2.27,1.963-4.04
	c-0.038-0.974-0.354-1.94-0.743-2.854c0.115-0.166,0.229-0.333,0.349-0.501c2.004-2.928,3.555-6.144,3.555-6.144
	s0.146,0.987,0.627,2.616c0.243,0.826,0.724,1.725,1.152,2.608c-1.886,1.53-3.052,3.306-3.456,4.472
	c-0.749,2.156-0.163,3.134,0.938,3.354c0.497,0.102,1.202-0.127,1.731-0.352c0.661-0.217,1.452-0.583,2.189-1.127
	c1.271-0.934,2.49-2.241,2.417-4.01c-0.029-0.805-0.252-1.604-0.547-2.374c1.594-0.665,3.66-1.035,6.293-0.726
	c5.646,0.66,6.754,4.184,6.541,5.658c-0.211,1.476-1.396,2.286-1.792,2.532c-0.396,0.247-0.518,0.33-0.479,0.512
	c0.049,0.264,0.229,0.254,0.565,0.197c0.466-0.077,2.965-1.199,3.07-3.922C512.465,77.725,509.15,73.928,503.283,73.959z
	 M459.771,88.629c-1.869,2.04-4.483,2.81-5.604,2.162c-1.21-0.701-0.729-3.705,1.564-5.869c1.396-1.319,3.2-2.535,4.397-3.284
	c0.271-0.164,0.675-0.404,1.159-0.697c0.08-0.045,0.125-0.07,0.125-0.07l-0.001-0.002c0.096-0.056,0.188-0.114,0.29-0.173
	C462.543,83.775,461.734,86.488,459.771,88.629z M473.393,79.367c-0.648,1.589-2.017,5.65-2.847,5.433
	c-0.712-0.188-1.146-3.276-0.143-6.313c0.506-1.53,1.585-3.358,2.22-4.068c1.021-1.141,2.146-1.515,2.417-1.052
	C475.392,73.956,473.803,78.372,473.393,79.367z M484.648,84.738c-0.277,0.144-0.529,0.236-0.646,0.165
	c-0.086-0.051,0.114-0.241,0.114-0.241s1.408-1.515,1.965-2.205c0.321-0.401,0.696-0.878,1.104-1.41
	c0.006,0.053,0.008,0.106,0.008,0.158C487.183,83.021,485.43,84.244,484.648,84.738z M493.319,82.761
	c-0.207-0.146-0.173-0.62,0.504-2.096c0.266-0.579,0.872-1.554,1.928-2.487c0.121,0.383,0.196,0.75,0.194,1.093
	C495.932,81.555,494.303,82.408,493.319,82.761z"/>
<path d="M76.354,163.989l3.417,38.731l15.948,4.557l15.948-4.557l3.417-38.731H76.354z M105.519,182.215l-0.802,13.1l-8.997,2.964
	l-8.998-2.964l-0.343-6.265h4.557l0.111,2.848l4.672,1.593l4.672-1.593l0.339-5.126H90.709l-0.231-4.557h10.484l0.338-4.557H85.583
	l-0.343-4.557h20.848L105.519,182.215z"/>
<path d="M124.867,92.502c-10.025,0-18.188,8.163-18.188,18.188s8.163,18.189,18.188,18.189c10.026,0,18.189-8.164,18.189-18.189
	S134.893,92.502,124.867,92.502z M124.867,93.334c9.566,0,17.356,7.79,17.356,17.356c0,9.565-7.79,17.356-17.356,17.356
	c-9.564,0-17.355-7.791-17.355-17.356C107.511,101.125,115.302,93.334,124.867,93.334z M124.867,95.087
	c-5.45,0-10.228,2.778-13.017,7.013c0.367,0.011,0.713,0.044,1.008,0.044c1.633,0,4.164-0.219,4.164-0.219
	c0.838-0.049,0.926,1.216,0.088,1.315c0,0-0.86,0.082-1.798,0.131l5.698,16.874l3.419-10.212l-2.455-6.662
	c-0.838-0.049-1.621-0.131-1.621-0.131c-0.844-0.049-0.751-1.364,0.088-1.315c0,0,2.585,0.219,4.12,0.219
	c1.632,0,4.164-0.219,4.164-0.219c0.843-0.049,0.925,1.216,0.087,1.315c0,0-0.859,0.082-1.797,0.131l5.654,16.742l1.533-5.171
	c0.789-2.027,1.184-3.704,1.184-5.041c0-1.928-0.674-3.26-1.271-4.295c-0.789-1.288-1.533-2.395-1.533-3.682
	c0-1.43,1.096-2.761,2.629-2.761c0.072,0,0.149-0.005,0.22,0C132.653,96.622,128.927,95.087,124.867,95.087z M138.542,103.196
	c0.071,0.499,0.132,1.046,0.132,1.622c0,1.583-0.295,3.342-1.184,5.566l-4.777,13.763c4.635-2.707,7.758-7.703,7.758-13.456
	C140.47,107.979,139.758,105.415,138.542,103.196z M110.623,104.335c-0.865,1.939-1.358,4.092-1.358,6.355
	c0,6.174,3.604,11.494,8.81,14.025L110.623,104.335z M125.13,112.05l-4.646,13.586c1.396,0.411,2.849,0.657,4.382,0.657
	c1.813,0,3.551-0.35,5.173-0.92c-0.039-0.065-0.056-0.099-0.088-0.175L125.13,112.05z"/>
<g>
	<path fill="#010002" d="M51.786,247.762c0.23-0.171,0.346-0.447,0.346-0.832c0-0.214-0.038-0.389-0.115-0.525
		c-0.077-0.135-0.18-0.237-0.308-0.314c-0.128-0.076-0.275-0.131-0.441-0.158c-0.167-0.025-0.34-0.047-0.52-0.047h-1.883v2.145
		h2.037C51.26,248.018,51.555,247.934,51.786,247.762z"/>
	<path fill="#010002" d="M52.106,249.689c-0.266-0.201-0.615-0.308-1.051-0.308h-2.19v2.517h2.152c0.196,0,0.385-0.021,0.563-0.062
		c0.178-0.038,0.337-0.104,0.474-0.188c0.137-0.09,0.246-0.213,0.327-0.364c0.081-0.154,0.121-0.351,0.121-0.589
		C52.502,250.225,52.371,249.891,52.106,249.689z"/>
	<path fill="#010002" d="M55.757,241.337H44.55c-1.076,0-1.948,0.873-1.948,1.948v11.207l0,0c0,1.076,0.873,1.947,1.948,1.947
		h11.207c1.076,0,1.948-0.871,1.948-1.947v-11.207C57.706,242.209,56.833,241.337,55.757,241.337z M54.244,252.008
		c-0.179,0.338-0.42,0.612-0.723,0.825c-0.303,0.214-0.649,0.372-1.038,0.476c-0.388,0.104-0.787,0.151-1.197,0.151h-4.431v-9.144
		h4.303c0.436,0,0.833,0.037,1.19,0.115c0.359,0.07,0.667,0.197,0.923,0.377c0.257,0.176,0.455,0.402,0.596,0.693
		c0.141,0.29,0.211,0.646,0.211,1.075c0,0.462-0.104,0.846-0.313,1.147c-0.209,0.312-0.519,0.562-0.929,0.76
		c0.564,0.158,0.984,0.441,1.262,0.853c0.277,0.406,0.417,0.896,0.417,1.472C54.514,251.271,54.423,251.67,54.244,252.008z"/>
</g>
<path d="M535.769,129.417c-5.833,0-10.564,4.729-10.564,10.564c0,5.833,4.729,10.565,10.564,10.565
	c5.834,0,10.563-4.729,10.563-10.565C546.33,134.144,541.603,129.417,535.769,129.417z M527.475,140.09l8.183,8.182
	C531.163,148.215,527.532,144.584,527.475,140.09L527.475,140.09z M537.624,148.065l-9.941-9.943
	c0.843-3.688,4.143-6.439,8.088-6.439c2.755,0,5.2,1.345,6.707,3.413l-1.149,1.014c-1.225-1.758-3.256-2.905-5.558-2.905
	c-2.927,0-5.427,1.862-6.365,4.468l8.674,8.672c2.104-0.762,3.728-2.54,4.271-4.744h-3.596v-1.622h5.316
	C544.062,143.922,541.312,147.223,537.624,148.065L537.624,148.065z"/>
<g>
	<path d="M55.259,336.035l-10.613,3.782l1.622,14.041l8.991,4.988l9.135-5.051l1.765-14.053L55.259,336.035z M59.848,353.414
		l-1.454-3.362h-5.933l-1.328,3.319l-2.47,0.043l6.613-14.715l6.933,14.756L59.848,353.414z"/>
	<path d="M57.529,348.085h-4.203l1.967-4.672L57.529,348.085z"/>
	<polygon points="57.529,348.085 55.293,343.413 53.327,348.085 	"/>
</g>
<g>
	<path d="M407.087,310.338v17.771h14.538v3.229h11.309v-3.229h25.851v-17.771H407.087z M421.449,325.596h-2.875v-9.513h-2.871v9.513
		h-5.745v-12.387h11.487h0.004V325.596z M435.808,325.593h-5.74v2.874h-5.742v-15.258h11.479h0.004V325.593L435.808,325.593z
		 M455.911,325.596h-2.874v-9.513h-2.871v9.513h-2.871v-9.513h-2.874v9.513h-5.742v-12.387h17.229h0.003V325.596z"/>
	<rect x="430.062" y="316.083" width="2.866" height="6.642"/>
</g>
<g>
	<path d="M202.664,188.732c-0.167,0-0.25-0.222-0.25-0.668V177.04c0-0.213-0.043-0.313-0.13-0.3c-0.526,0.133-0.791,0.2-0.798,0.2
		c-0.146,0.013-0.22-0.133-0.22-0.439v-0.958c0-0.265,0.08-0.415,0.239-0.448l2.635-0.678c0.021-0.006,0.05-0.009,0.089-0.009
		c0.146,0,0.218,0.155,0.218,0.468v13.19c0,0.446-0.087,0.668-0.259,0.668L202.664,188.732z M209.487,188.753
		c-0.268,0-0.497-0.019-0.693-0.056c-0.196-0.037-0.399-0.12-0.613-0.25c-0.213-0.13-0.387-0.308-0.524-0.534
		c-0.137-0.226-0.248-0.542-0.333-0.948c-0.085-0.406-0.13-0.887-0.13-1.447v-5.117c0-0.133-0.036-0.2-0.109-0.2h-0.618
		c-0.167,0-0.251-0.159-0.251-0.478v-0.539c0-0.326,0.084-0.489,0.251-0.489h0.618c0.073,0,0.109-0.089,0.109-0.269l0.18-3.881
		c0.021-0.352,0.105-0.528,0.26-0.528h0.999c0.166,0,0.249,0.176,0.249,0.528v3.881c0,0.18,0.039,0.269,0.121,0.269h1.272
		c0.167,0,0.25,0.163,0.25,0.489v0.539c0,0.318-0.083,0.478-0.25,0.478h-1.276c-0.047,0-0.078,0.011-0.095,0.035
		c-0.017,0.022-0.023,0.078-0.023,0.165v5.148c0,0.386,0.023,0.708,0.073,0.963c0.051,0.256,0.122,0.445,0.219,0.562
		c0.097,0.118,0.193,0.2,0.29,0.239c0.096,0.041,0.214,0.059,0.354,0.059h0.708c0.179,0,0.268,0.125,0.268,0.369v0.599
		c0,0.272-0.097,0.409-0.289,0.409L209.487,188.753L209.487,188.753z M213.316,189.95c0.151,0,0.285-0.124,0.398-0.374
		c0.113-0.25,0.17-0.604,0.17-1.063c0-0.107-0.066-0.476-0.2-1.108l-1.956-8.13c-0.013-0.093-0.021-0.167-0.021-0.221
		c0-0.239,0.051-0.359,0.15-0.359h1.208c0.092,0,0.169,0.031,0.229,0.095c0.062,0.062,0.107,0.19,0.139,0.383l1.297,6.863
		c0.025,0.08,0.042,0.121,0.051,0.121c0.025,0,0.04-0.037,0.04-0.109l1.017-6.845c0.026-0.2,0.068-0.333,0.125-0.404
		c0.055-0.07,0.128-0.105,0.215-0.105h0.837c0.113,0,0.171,0.13,0.171,0.389c0,0.059-0.008,0.137-0.021,0.229l-1.777,9.25
		c-0.139,0.765-0.292,1.35-0.459,1.756c-0.167,0.406-0.352,0.681-0.56,0.828c-0.206,0.147-0.478,0.223-0.818,0.229h-0.101
		c-0.539,0-0.904-0.142-1.097-0.429c-0.054-0.06-0.079-0.213-0.079-0.46c0-0.493,0.079-0.739,0.238-0.739
		c0.014,0,0.134,0.034,0.36,0.101C213.102,189.917,213.248,189.95,213.316,189.95L213.316,189.95z"/>
	<g>
		<path d="M197.643,188.751c-0.167,0-0.249-0.222-0.249-0.668v-11.024c0-0.213-0.043-0.313-0.13-0.3
			c-0.527,0.133-0.792,0.2-0.799,0.2c-0.146,0.013-0.219-0.133-0.219-0.439v-0.958c0-0.265,0.08-0.415,0.239-0.448l2.636-0.68
			c0.021-0.005,0.05-0.009,0.089-0.009c0.146,0,0.218,0.155,0.218,0.469v13.19c0,0.446-0.086,0.668-0.259,0.668L197.643,188.751
			L197.643,188.751z"/>
	</g>
</g>
<path fill="none" stroke="#000000" stroke-miterlimit="10" d="M263.018,355.688l-4.622-1.576c-0.307-0.104-0.649-0.055-0.907,0.146
	l-10.419,7.988l-5.271-3.187c-0.271-0.165-0.603-0.188-0.893-0.061l-1.946,0.852c-0.354,0.155-0.583,0.511-0.583,0.896v9.729
	c0,0.392,0.229,0.737,0.583,0.896l1.946,0.852c0.289,0.127,0.622,0.104,0.893-0.061l5.27-3.187l10.419,7.988
	c0.172,0.133,0.382,0.201,0.592,0.201c0.106,0,0.212-0.021,0.315-0.053l4.622-1.582c0.394-0.139,0.659-0.504,0.659-0.92v-18.007
	C263.675,356.191,263.411,355.822,263.018,355.688z M242.269,367.327v-3.438l2.844,1.723L242.269,367.327z M257.837,370.198
	l-6.774-4.59l6.774-4.594V370.198z"/>
<path d="M485.319,351.382v24.062h24.062v-24.062H485.319z M496.628,372.435h-9.021v-1.507h9.021V372.435z M495.064,364.495
	l-1.625-5.774l-1.623,5.774h-1.862l-2.89-9.985h2.349l1.504,5.774l1.684-5.774h1.688l1.686,5.774l1.503-5.774h2.349l-2.89,9.985
	H495.064z M503.605,364.676c-1.547-0.058-3.024-0.629-4.213-1.625l1.269-1.562c0.897,0.722,1.805,1.203,2.944,1.203
	c0.9,0,1.441-0.361,1.441-0.962c0-0.544-0.359-0.848-1.982-1.269c-1.982-0.541-3.249-1.083-3.249-3.063v-0.062
	c0-1.805,1.442-3.008,3.432-3.008c1.331-0.005,2.624,0.438,3.67,1.263l-1.146,1.688c-0.728-0.568-1.604-0.903-2.523-0.963
	c-0.781,0-1.266,0.356-1.266,0.897c0,0.662,0.421,0.902,2.104,1.323c1.981,0.541,3.128,1.263,3.128,3.007
	C507.215,363.532,505.711,364.676,503.605,364.676z"/>
<g enable-background="new    ">
	<path d="M122.208,375.111c0.704,0,1.032-0.328,0.984-0.984l-0.12-1.884c-0.017-0.328,0.024-0.62,0.12-0.876
		c0.096-0.256,0.242-0.478,0.438-0.654c0.196-0.18,0.432-0.316,0.708-0.414c0.276-0.096,0.586-0.144,0.93-0.144h0.816v1.38h-0.612
		c-0.288,0-0.512,0.064-0.672,0.204c-0.16,0.136-0.232,0.353-0.216,0.646l0.12,1.886c0.024,0.446-0.106,0.806-0.39,1.065
		c-0.284,0.265-0.662,0.404-1.134,0.42v0.062c0.48,0.016,0.86,0.162,1.14,0.438c0.28,0.276,0.408,0.641,0.384,1.086l-0.12,1.872
		c-0.016,0.269,0.058,0.471,0.222,0.618c0.164,0.148,0.386,0.223,0.666,0.223h0.612v1.396h-0.816c-0.336,0-0.644-0.05-0.924-0.15
		c-0.28-0.1-0.518-0.242-0.714-0.426c-0.196-0.184-0.344-0.408-0.444-0.672c-0.1-0.268-0.138-0.562-0.114-0.888l0.12-1.824
		c0.024-0.328-0.042-0.576-0.198-0.744c-0.156-0.168-0.418-0.252-0.786-0.252h-1.428v-1.38L122.208,375.111L122.208,375.111z"/>
	<path d="M130.271,378.927c0.432,0,0.774-0.123,1.026-0.371s0.378-0.58,0.378-0.996v-4.717h-3.084v-1.38h4.584v6.097
		c0,0.416-0.068,0.79-0.204,1.122c-0.136,0.332-0.33,0.613-0.582,0.85c-0.252,0.229-0.556,0.41-0.912,0.532
		s-0.758,0.188-1.206,0.188c-0.408,0-0.782-0.058-1.122-0.174c-0.34-0.116-0.634-0.282-0.882-0.498s-0.448-0.479-0.6-0.78
		s-0.244-0.646-0.276-1.031h1.512c0.04,0.354,0.182,0.638,0.426,0.85S129.887,378.927,130.271,378.927z"/>
	<path d="M137.832,380.235c-0.424,0-0.814-0.061-1.17-0.168c-0.356-0.112-0.662-0.274-0.918-0.486
		c-0.256-0.212-0.458-0.466-0.606-0.762s-0.23-0.628-0.246-0.996h1.536c0.016,0.344,0.154,0.614,0.414,0.81
		c0.26,0.196,0.602,0.294,1.026,0.294c0.439,0,0.782-0.1,1.026-0.3c0.244-0.199,0.366-0.468,0.366-0.804
		c0-0.296-0.092-0.552-0.276-0.771c-0.184-0.217-0.444-0.376-0.78-0.479l-0.912-0.268c-1.488-0.404-2.232-1.265-2.232-2.564
		c0-0.36,0.066-0.688,0.198-0.984c0.132-0.296,0.318-0.55,0.558-0.762c0.24-0.212,0.532-0.374,0.876-0.485
		c0.344-0.108,0.732-0.169,1.164-0.169c0.816,0,1.474,0.211,1.974,0.631c0.5,0.423,0.77,0.998,0.81,1.733h-1.524
		c-0.016-0.328-0.144-0.584-0.384-0.768c-0.24-0.188-0.544-0.276-0.912-0.276c-0.392,0-0.7,0.092-0.924,0.276
		c-0.224,0.184-0.336,0.428-0.336,0.729c0,0.576,0.348,0.965,1.044,1.164l0.96,0.265c0.72,0.199,1.268,0.525,1.644,0.979
		s0.564,1.01,0.564,1.674c0,0.376-0.07,0.717-0.21,1.021c-0.14,0.304-0.338,0.562-0.594,0.775c-0.256,0.218-0.564,0.386-0.924,0.505
		C138.684,380.175,138.279,380.235,137.832,380.235z"/>
	<path d="M142.163,373.995c0-0.399,0.068-0.762,0.204-1.086c0.136-0.324,0.328-0.604,0.576-0.834c0.248-0.231,0.55-0.41,0.906-0.534
		s0.75-0.186,1.182-0.186c0.432,0,0.826,0.062,1.182,0.186c0.355,0.124,0.658,0.303,0.906,0.534c0.248,0.229,0.44,0.51,0.576,0.834
		c0.136,0.324,0.204,0.687,0.204,1.086v3.588c0,0.393-0.068,0.752-0.204,1.08c-0.136,0.328-0.33,0.608-0.582,0.84
		c-0.252,0.232-0.554,0.412-0.906,0.54s-0.744,0.192-1.176,0.192c-0.432,0-0.826-0.062-1.182-0.188
		c-0.356-0.123-0.658-0.302-0.906-0.533c-0.248-0.229-0.44-0.513-0.576-0.841c-0.136-0.327-0.204-0.688-0.204-1.092V373.995
		L142.163,373.995z M143.663,377.583c0,0.408,0.124,0.732,0.372,0.973c0.248,0.239,0.58,0.359,0.996,0.359
		c0.416,0,0.748-0.12,0.996-0.359c0.248-0.236,0.372-0.562,0.372-0.973v-3.588c0-0.408-0.124-0.731-0.372-0.972
		c-0.248-0.241-0.58-0.36-0.996-0.36c-0.416,0-0.748,0.12-0.996,0.36c-0.248,0.236-0.372,0.562-0.372,0.972V377.583z"/>
	<path d="M151.307,371.476l2.076,5.748c0.048,0.128,0.09,0.275,0.126,0.443c0.036,0.168,0.07,0.328,0.102,0.48
		c0.032,0.184,0.06,0.364,0.084,0.552h0.144c-0.032-0.24-0.058-0.452-0.078-0.636c-0.02-0.188-0.04-0.392-0.06-0.612
		c-0.02-0.228-0.03-0.439-0.03-0.647v-5.328h1.332v8.644h-1.848l-2.04-5.76c-0.056-0.16-0.104-0.324-0.144-0.492
		s-0.072-0.328-0.096-0.48c-0.032-0.168-0.06-0.336-0.084-0.504h-0.144c0.024,0.192,0.048,0.396,0.072,0.612
		c0.016,0.185,0.032,0.386,0.048,0.604c0.016,0.224,0.024,0.445,0.024,0.682v5.34h-1.332v-8.644L151.307,371.476L151.307,371.476z"
		/>
	<path d="M156.815,381.447v-1.396h0.612c0.288,0,0.514-0.064,0.678-0.204c0.164-0.137,0.238-0.349,0.222-0.637l-0.12-1.884
		c-0.032-0.448,0.094-0.804,0.378-1.067c0.284-0.265,0.662-0.4,1.134-0.421v-0.06c-0.48-0.02-0.86-0.162-1.14-0.438
		c-0.28-0.272-0.404-0.639-0.372-1.087l0.12-1.871c0.016-0.271-0.06-0.479-0.228-0.631c-0.168-0.146-0.392-0.222-0.672-0.222h-0.612
		v-1.38h0.828c0.336,0,0.642,0.05,0.918,0.146c0.276,0.104,0.512,0.241,0.708,0.426c0.196,0.188,0.344,0.406,0.444,0.666
		c0.1,0.264,0.138,0.558,0.114,0.886l-0.12,1.836c-0.024,0.328,0.042,0.57,0.198,0.734c0.156,0.164,0.417,0.246,0.786,0.246h1.428
		v1.38h-1.428c-0.704,0-1.032,0.332-0.984,0.996l0.12,1.872c0.016,0.319-0.024,0.609-0.12,0.869
		c-0.096,0.261-0.24,0.482-0.432,0.666c-0.192,0.187-0.428,0.324-0.708,0.421c-0.28,0.096-0.588,0.146-0.924,0.146h-0.828V381.447
		L156.815,381.447z"/>
</g>
<g>
	<path d="M251.026,135.674c-7.769,0-13.856,3.297-13.856,7.505s6.087,7.505,13.856,7.505s13.856-3.297,13.856-7.505
		S258.795,135.674,251.026,135.674z M248.033,142.744c-0.404,1.706-1.486,2.168-3.475,2.168h-0.952l-0.302,1.732h-1.529l1.17-6.351
		h3.078C247.491,140.293,248.379,141.276,248.033,142.744z M251.881,144.912l0.552-2.551c0.067-0.349,0.041-0.593-0.077-0.722
		c-0.117-0.128-0.375-0.191-0.76-0.191h-1.211l-0.731,3.464h-1.516l1.448-6.928h1.514l-0.48,2.309h1.351
		c0.857,0,1.433,0.12,1.759,0.419c0.32,0.295,0.417,0.78,0.289,1.441l-0.6,2.759H251.881L251.881,144.912z M260.157,142.744
		c-0.404,1.706-1.487,2.168-3.476,2.168h-0.952l-0.302,1.732h-1.53l1.172-6.351h3.077
		C259.616,140.293,260.503,141.276,260.157,142.744z"/>
	<path d="M246.588,142.385c-0.133,1.274-0.927,1.371-1.782,1.371h-0.988l0.435-2.309h1.191
		C246.433,141.447,246.639,141.892,246.588,142.385z"/>
	<path d="M258.712,142.385c-0.134,1.274-0.927,1.371-1.781,1.371h-0.988l0.436-2.309h1.191
		C258.557,141.447,258.762,141.892,258.712,142.385z"/>
	<path d="M245.445,141.447h-1.191l-0.435,2.309h0.988c0.854,0,1.648-0.097,1.782-1.371
		C246.639,141.892,246.433,141.447,245.445,141.447z"/>
	<path d="M257.569,141.447h-1.191l-0.436,2.309h0.988c0.854,0,1.647-0.097,1.781-1.371
		C258.762,141.892,258.557,141.447,257.569,141.447z"/>
</g>
<path d="M308.328,88.486c-0.464,0.063-0.785,0.495-0.722,0.962l0.989,6.791c0.067,0.464,0.498,0.789,0.962,0.721
	c0.468-0.066,0.789-0.521,0.722-0.989l-0.962-6.764C309.251,88.744,308.797,88.42,308.328,88.486z M303.169,90.277
	c-0.111,0.021-0.221,0.07-0.321,0.135c-0.395,0.256-0.498,0.778-0.24,1.176l3.743,5.748c0.257,0.394,0.782,0.498,1.176,0.24
	c0.397-0.257,0.498-0.778,0.241-1.176l-3.743-5.748C303.831,90.358,303.497,90.218,303.169,90.277z M299.426,93.86
	c-0.217,0.04-0.428,0.181-0.562,0.375c-0.268,0.387-0.174,0.905,0.214,1.176l5.642,3.902c0.383,0.268,0.909,0.17,1.176-0.213
	c0.271-0.388,0.173-0.936-0.213-1.203l-5.615-3.876C299.875,93.887,299.643,93.82,299.426,93.86z M297.367,97.924
	c-0.331,0.036-0.621,0.247-0.722,0.587c-0.133,0.451,0.137,0.936,0.588,1.069l6.55,1.925c0.451,0.134,0.936-0.11,1.069-0.562
	c0.134-0.451-0.136-0.936-0.588-1.07l-6.549-1.924C297.601,97.917,297.479,97.911,297.367,97.924z M292.475,101.773v5.988
	c0,1.417,1.149,2.567,2.567,2.567h10.266c1.417,0,2.567-1.149,2.567-2.567v-5.988h-1.711v5.988c0,0.472-0.384,0.856-0.855,0.856
	h-10.267c-0.472,0-0.856-0.384-0.856-0.856v-5.988H292.475z M296.86,101.88c-0.471-0.046-0.889,0.308-0.936,0.775
	c-0.047,0.471,0.307,0.889,0.775,0.936l6.817,0.668c0.471,0.047,0.889-0.304,0.936-0.775c0.046-0.468-0.308-0.889-0.776-0.936
	L296.86,101.88z M296.752,105.195c-0.471,0-0.855,0.385-0.855,0.856c0,0.47,0.385,0.855,0.855,0.855h6.844
	c0.472,0,0.856-0.385,0.856-0.855c0-0.472-0.385-0.856-0.856-0.856H296.752z"/>
</svg>
